<?xml version="1.0" encoding="utf-8"?>
<!-- Generator: Adobe Illustrator 22.1.0, SVG Export Plug-In . SVG Version: 6.00 Build 0)  -->
<svg version="1.1" id="Layer_1" xmlns="http://www.w3.org/2000/svg" xmlns:xlink="http://www.w3.org/1999/xlink" x="0px" y="0px"
	 viewBox="0 0 471.4 101.3" style="enable-background:new 0 0 471.4 101.3;" xml:space="preserve">
<style type="text/css">
	.st0{fill:#FFFFFF;}
</style>
<g>
	<g>
		<path class="st0" d="M452.4,99.3H440c-4,0-7.5-0.3-10.5-0.8c-3-0.5-5.6-1.3-7.8-2.3c-4.2-2.2-7.2-5.6-8.8-10.5
			c-1.6-4.8-2.4-11.3-2.4-19.4V41.5h-13.3V21.1c1.5,0,2.9-0.1,4-0.2c1.1-0.1,2.4-0.3,3.7-0.6c2.5-0.4,4.4-1.2,5.5-2.5
			c1.1-1.3,1.9-3.6,2.2-7c0.2-1.6,0.3-3.4,0.5-5.3c0.1-1.9,0.2-2.5,0.3-4.1h20.3v18.4h18.7v21.7h-18.7v20c0,2.3,0.1,4.2,0.3,5.9
			c0.2,1.7,0.4,3,0.7,4.1c0.7,2.1,2.1,3.4,4,4c1.9,0.6,4.9,0.9,8.7,0.9h5V99.3z"/>
	</g>
	<g>
		<path class="st0" d="M457.7,14.1c-1.5-1.3-2.3-3.2-2.3-5.8V8c0-0.8,0.1-1.6,0.3-2.3c0.2-0.7,0.4-1.4,0.8-1.9
			c0.7-1.2,1.6-2.1,2.8-2.8c1.2-0.7,2.6-1,4.1-1c0.8,0,1.5,0.1,2.1,0.2c0.7,0.1,1.3,0.4,1.9,0.7c1.2,0.6,2.2,1.5,2.9,2.7
			c0.7,1.2,1.1,2.6,1.1,4.3v0.4c0,0.8-0.1,1.6-0.3,2.3c-0.2,0.7-0.5,1.3-0.8,1.9c-0.7,1.2-1.6,2.1-2.8,2.6c-1.2,0.6-2.5,0.9-4,0.9
			C461.1,16.1,459.2,15.4,457.7,14.1z M468.1,13.1c1.2-1.1,1.8-2.7,1.8-4.8V8c0-2.1-0.6-3.8-1.9-4.9c-1.2-1.2-2.8-1.7-4.7-1.7
			c-1.9,0-3.4,0.6-4.7,1.8c-1.2,1.2-1.8,2.8-1.8,4.9v0.2c0,2.1,0.6,3.7,1.8,4.8c1.2,1.1,2.8,1.7,4.7,1.7
			C465.3,14.8,466.9,14.2,468.1,13.1z M461.8,9v3.1h-1.4V3.8h3.3c1.2,0,2,0.2,2.5,0.7c0.5,0.4,0.7,1,0.7,1.7c0,0.6-0.1,1.1-0.4,1.4
			c-0.3,0.3-0.7,0.6-1.3,0.7c0.5,0.1,0.9,0.3,1.1,0.6c0.2,0.3,0.3,0.8,0.3,1.4v1.2c0,0.1,0,0.2,0,0.2c0,0.1,0.1,0.1,0.1,0.2h-1.5
			c0,0,0-0.1-0.1-0.1c0-0.1,0-0.2,0-0.3v-1.2c0-0.5-0.1-0.9-0.3-1.1c-0.2-0.2-0.7-0.3-1.4-0.3H461.8z M465,7.4
			c0.3-0.3,0.4-0.6,0.4-1.1c0-0.4-0.1-0.7-0.5-0.9c-0.3-0.2-0.8-0.3-1.4-0.3h-1.8v2.8h1.7C464.2,7.8,464.8,7.7,465,7.4z"/>
	</g>
	<g>
		<path class="st0" d="M23.2,41.2v58.1H0V2.4h23.3l35.5,57.1V2.4H82v96.8H59.4L23.2,41.2z"/>
	</g>
	<g>
		<path class="st0" d="M156.9,94c-6.3,4.9-15.2,7.3-26.7,7.3c-13.6,0-23.7-3.5-30.2-10.6c-6.5-7.1-9.8-16.6-9.8-28.7v-2.3
			c0-4.2,0.4-8.1,1.2-11.7c0.8-3.6,2.1-6.9,3.8-9.9c3.3-6,8-10.7,14.1-13.9c6.1-3.2,13.1-4.9,21.3-4.9c4.6,0,8.8,0.4,12.6,1.4
			c3.8,0.9,7.1,2.3,10,4c5.8,3.6,10.1,8.4,12.8,14.3c2.8,5.9,4.1,12.4,4.1,19.5v8.8h-55.5c0.6,4.9,2.3,8.5,4.9,10.9
			c2.7,2.4,6.4,3.6,11.2,3.6c3.4,0,6.2-0.7,8.2-2c2-1.4,3.5-3.2,4.4-5.4h26.2C167.4,82.6,163.2,89.1,156.9,94z M120,41.4
			c-2.7,2.3-4.5,5.8-5.3,10.5h31c-0.5-4.4-2-7.8-4.4-10.3c-2.4-2.4-5.9-3.6-10.5-3.6C126.3,37.9,122.7,39.1,120,41.4z"/>
	</g>
	<g>
		<path class="st0" d="M207.6,77.1l-14.4,22.2h-29l29-40.8l-26.3-37.6h27.9l12.9,19.9l12.9-19.9h27.8l-26.2,37.3l27.9,41.1h-28.2
			L207.6,77.1z"/>
	</g>
</g>
</svg>
