<?xml version="1.0" encoding="utf-8"?>
<!-- Generator: Adobe Illustrator 22.1.0, SVG Export Plug-In . SVG Version: 6.00 Build 0)  -->
<svg version="1.1" id="Layer_1" xmlns="http://www.w3.org/2000/svg" xmlns:xlink="http://www.w3.org/1999/xlink" x="0px" y="0px"
	 viewBox="0 0 150 40" style="enable-background:new 0 0 150 40;" xml:space="preserve">
<style type="text/css">
	.st0{fill:#50193A;}
</style>
<path class="st0" d="M9.9,16.2v22.3H1V1.3h8.9l13.6,22v-22h8.9v37.2h-8.7L9.9,16.2z"/>
<path class="st0" d="M61.1,36.5c-2.4,1.9-5.8,2.8-10.2,2.8c-5.2,0-9.1-1.4-11.6-4.1c-2.5-2.7-3.7-6.4-3.7-11v-0.9
	c0-1.6,0.2-3.1,0.5-4.5c0.3-1.4,0.8-2.7,1.5-3.8c1.3-2.3,3.1-4.1,5.4-5.4c2.3-1.2,5-1.9,8.2-1.9c1.8,0,3.4,0.2,4.8,0.5
	c1.5,0.3,2.7,0.9,3.8,1.6c2.2,1.4,3.9,3.2,4.9,5.5c1.1,2.3,1.6,4.8,1.6,7.5v3.4H44.9c0.2,1.9,0.9,3.3,1.9,4.2c1,0.9,2.5,1.4,4.3,1.4
	c1.3,0,2.4-0.3,3.1-0.8c0.8-0.5,1.3-1.2,1.7-2.1h10C65.1,32.1,63.5,34.6,61.1,36.5z M47,16.3c-1,0.9-1.7,2.2-2,4h11.9
	c-0.2-1.7-0.8-3-1.7-3.9c-0.9-0.9-2.3-1.4-4-1.4C49.4,14.9,48,15.4,47,16.3z"/>
<path class="st0" d="M80.5,30L75,38.5H63.9L75,22.8L64.9,8.4h10.7l4.9,7.6l4.9-7.6h10.6l-10,14.3l10.7,15.8H86L80.5,30z"/>
<path class="st0" d="M141.7,38.5H137c-1.5,0-2.9-0.1-4-0.3c-1.2-0.2-2.2-0.5-3-0.9c-1.6-0.8-2.8-2.2-3.4-4c-0.6-1.9-0.9-4.3-0.9-7.5
	v-9.6h-5.1V8.4c0.6,0,1.1,0,1.5-0.1c0.4-0.1,0.9-0.1,1.4-0.2c1-0.1,1.7-0.5,2.1-1c0.4-0.5,0.7-1.4,0.9-2.7c0.1-0.6,0.1-1.3,0.2-2.1
	c0.1-0.7,0.1-1,0.1-1.6h7.8v7.1h7.2v8.4h-7.2V24c0,0.9,0,1.6,0.1,2.3c0.1,0.6,0.2,1.2,0.3,1.6c0.3,0.8,0.8,1.3,1.5,1.6
	c0.7,0.2,1.9,0.4,3.4,0.4h1.9V38.5z"/>
<path class="st0" d="M143.7,5.8c-0.6-0.5-0.9-1.2-0.9-2.2V3.4c0-0.3,0-0.6,0.1-0.9s0.2-0.5,0.3-0.7c0.3-0.5,0.6-0.8,1.1-1.1
	c0.5-0.3,1-0.4,1.6-0.4c0.3,0,0.6,0,0.8,0.1c0.3,0.1,0.5,0.1,0.7,0.3c0.5,0.2,0.8,0.6,1.1,1.1c0.3,0.5,0.4,1,0.4,1.6v0.2
	c0,0.3,0,0.6-0.1,0.9c-0.1,0.3-0.2,0.5-0.3,0.7c-0.3,0.4-0.6,0.8-1.1,1c-0.5,0.2-1,0.3-1.5,0.3C145.1,6.5,144.3,6.3,143.7,5.8z
	 M147.7,5.4c0.5-0.4,0.7-1,0.7-1.9V3.4c0-0.8-0.2-1.4-0.7-1.9c-0.5-0.4-1.1-0.7-1.8-0.7c-0.7,0-1.3,0.2-1.8,0.7
	c-0.5,0.5-0.7,1.1-0.7,1.9v0.1c0,0.8,0.2,1.4,0.7,1.9c0.5,0.4,1.1,0.6,1.8,0.6C146.7,6,147.3,5.8,147.7,5.4z M145.3,3.8V5h-0.5V1.8
	h1.3c0.4,0,0.8,0.1,0.9,0.3c0.2,0.2,0.3,0.4,0.3,0.7c0,0.2-0.1,0.4-0.2,0.5c-0.1,0.1-0.3,0.2-0.5,0.3c0.2,0,0.3,0.1,0.4,0.2
	c0.1,0.1,0.1,0.3,0.1,0.5v0.5c0,0,0,0.1,0,0.1c0,0,0,0.1,0,0.1h-0.6c0,0,0,0,0-0.1c0,0,0-0.1,0-0.1V4.4c0-0.2,0-0.3-0.1-0.4
	c-0.1-0.1-0.3-0.1-0.5-0.1H145.3z M146.6,3.2c0.1-0.1,0.2-0.2,0.2-0.4c0-0.2-0.1-0.3-0.2-0.4c-0.1-0.1-0.3-0.1-0.5-0.1h-0.7v1.1h0.7
	C146.3,3.4,146.5,3.3,146.6,3.2z"/>
</svg>
