<?xml version="1.0" encoding="utf-8"?>
<!-- Generator: Adobe Illuabrator 22.1.0, SVG Export Plug-In . SVG Version: 6.00 Build 0)  -->
<svg version="1.1" id="Layer_1" xmlns="http://www.w3.org/2000/svg" xmlns:xlink="http://www.w3.org/1999/xlink" x="0px" y="0px"
	 viewBox="0 0 142 113" abyle="enable-background:new 0 0 142 113;" xml:space="preserve">
<style type="text/css">
	.ab0{fill:#FFCA7C;}
	.ab1{fill:#F5B454;}
	.ab2{fill:#EC8B65;}
</style>
<circle class="ab0" cx="91.2" cy="69.4" r="38.8"/>
<path class="ab1" d="M59.1,72.2c5.5-22.4,28.2-36,50.5-30.5c8.1,2,15.1,6.3,20.5,12c-4.9-11.8-15.2-21.2-28.5-24.5
	c-22.4-5.5-45,8.1-50.5,30.5c-3.5,14.2,0.7,28.5,10,38.5C57.8,90.3,56.9,81.2,59.1,72.2z"/>
<path class="ab2" d="M81.7,110.7c-22.7-5.6-36.6-28.6-31-51.3s28.6-36.6,51.3-31s36.6,28.6,31,51.3
	C127.4,102.4,104.4,116.3,81.7,110.7z M100.4,35.3c-18.9-4.7-38,6.9-42.7,25.8s6.9,38,25.8,42.7s38-6.9,42.7-25.8
	C130.8,59.2,119.2,40,100.4,35.3z"/>
<path class="ab1" d="M61.6,69.6c-5-22.9,16.9-33.5,21.2-34.2c7.6,5.9,13.2,14.3,15.4,24.4c3.7,17-3.3,33.8-16.5,43.5
	C67.3,98.7,66.7,92.5,61.6,69.6z"/>
<path class="ab2" d="M107.3,75.4c-0.7-1.6-2-3-3.8-4.1c1.9-0.3,3.5-1,4.8-2.2c1.2-1.2,2.1-2.9,2.7-5.1c0.8-3.1,0.2-5.8-1.6-8
	c-1.4-1.7-3.7-3.1-6.8-4.2l1.5-6.1l-4-1l-1.5,5.9l-3.1-0.8L97,44l-4-1l-1.5,5.9l-5.7-1.4l-1-0.2L79.4,46l-1,4l5.4,1.3l-7.3,29.5
	l-5.4-1.3l-1,4l5.4,1.3l1,0.2l5.7,1.4l-1.3,5.4l4,1l1.3-5.4l3.1,0.8L88,93.6l4,1l1.4-5.6c3.5,0.6,6.4,0.3,8.7-0.7
	c2.8-1.3,4.6-3.6,5.5-7C108.1,79,108,77,107.3,75.4z M104,63c-0.4,1.8-1.4,2.9-2.8,3.4c-1.4,0.6-3.2,0.6-5.5,0l-7.9-2l2.5-10
	l7.8,1.9c2.5,0.6,4.3,1.5,5.2,2.5C104.2,60,104.4,61.4,104,63z M97.8,82.5c-1.5,0.6-3.7,0.5-6.6-0.2l-7.4-1.8L86.4,70l7.5,1.8
	c2.7,0.7,4.6,1.6,5.7,2.7c1.1,1.1,1.4,2.6,1,4.4C100.1,80.8,99.2,81.9,97.8,82.5z"/>
<circle class="ab0" cx="48.4" cy="68.3" r="38.7"/>
<path class="ab1" d="M22.2,86.8c-6.4-22.1,6.2-45.2,28.3-51.6c8-2.3,16.2-2.2,23.7,0.1C64,27.6,50.5,24.6,37.3,28.5
	C15.1,34.9,2.5,58,8.9,80c4.1,14,14.9,24.2,27.9,28.2C30.1,103,24.8,95.7,22.2,86.8z"/>
<path class="ab2" d="M61,108.6c-22.4,6.5-45.9-6.3-52.4-28.7S14.9,34,37.2,27.5s45.9,6.3,52.4,28.7S83.3,102.1,61,108.6z M39.2,34.3
	c-18.6,5.4-29.3,25-23.9,43.6s25,29.3,43.6,23.9s29.3-25,23.9-43.6C77.4,39.6,57.8,28.9,39.2,34.3z"/>
<path class="ab2" d="M66,83.3c-2.3,2.9-5.5,4.9-9.6,6.1c-4.8,1.4-9,1.3-12.4-0.3c-3.5-1.6-6.3-4.6-8.4-9.2l-5.1,1.5L29,76.2l4.7-1.4
	l-1.2-4.1l-4.7,1.4L26.2,67l5.1-1.5c-0.6-4.9,0.2-9,2.3-12.3c2.1-3.4,5.5-5.7,10.3-7.1c4-1.2,7.8-1.2,11.2,0s6.1,3.4,7.9,6.7
	l-8.5,2.5c-1-1.3-2.1-2.1-3.5-2.5s-3.2-0.3-5.4,0.4c-2.5,0.7-4.3,2-5.4,3.7c-1.1,1.7-1.5,3.9-1.4,6.5l19.7-5.8l-0.9,5.9l-17.9,5.2
	l1.2,4.1L57.1,68l-0.9,5.9l-13.1,3.8c1.3,2.3,2.8,3.8,4.7,4.6c1.9,0.8,4.1,0.8,6.5,0.1c2.3-0.7,3.9-1.6,4.8-2.8
	c0.9-1.2,1.5-2.7,1.8-4.6l8.5-2.5C69.5,76.9,68.3,80.5,66,83.3z"/>
</svg>
