<?xml version="1.0" encoding="utf-8"?>
<!-- Generator: Adobe Illustrator 22.1.0, SVG Export Plug-In . SVG Version: 6.00 Build 0)  -->
<svg version="1.1" id="Layer_1" xmlns="http://www.w3.org/2000/svg" xmlns:xlink="http://www.w3.org/1999/xlink" x="0px" y="0px"
	 viewBox="0 0 132 132" style="enable-background:new 0 0 132 132;" xml:space="preserve">
<style type="text/css">
	.st0{fill:#C58F7E;}
	.st1{fill:#B68276;}
	.st2{fill:#E5A58E;}
	.st3{fill:#FFB59C;}
	.st4{fill:#411430;}
	.st5{fill:#FFCA7C;}
</style>
<g>
	<rect x="35.2" y="25.7" class="st0" width="22.2" height="7.2"/>
	<g>
		<path class="st1" d="M100.5,49.2c0.8,1.9,3.1,14.7,3.1,14.7L76.3,97.8l-6.7-8.2L100.5,49.2z"/>
		<polygon class="st0" points="69.5,89.7 53.9,72.8 100.8,29.4 110.5,39.9 		"/>
	</g>
	<rect x="45.2" y="123.7" class="st2" width="76.2" height="6.5"/>
	<rect x="72.9" y="105.4" class="st0" width="20.7" height="18.3"/>
	<g>
		<rect x="67.5" y="110.9" class="st1" width="31.5" height="8.2"/>
		<rect x="73.7" y="110.9" class="st0" width="9.6" height="8.2"/>
		<rect x="83.3" y="110.9" class="st2" width="9.6" height="8.2"/>
		<rect x="92.5" y="110.9" class="st3" width="6.5" height="8.2"/>
	</g>
	<rect x="56.3" y="91.5" class="st2" width="45.5" height="14.1"/>
	<g>
		<path class="st2" d="M80.6,93.2l-24.4,12.4l-12.1-12c-5.1-5.1-5.1-13.3,0-18.4s13.3-5.1,18.4,0L80.6,93.2z"/>
		<g>
			<circle class="st4" cx="53.3" cy="84.3" r="4.5"/>
		</g>
		
			<rect x="48.3" y="83.6" transform="matrix(0.7071 -0.7071 0.7071 0.7071 -44.0034 62.3917)" class="st2" width="10.1" height="1.4"/>
	</g>
	<path class="st2" d="M53.9,37.5h45.3l4,2.4h7.3v-2.4v-5c0-6.6-5.4-12-12-12H53.9V37.5z"/>
	<rect x="62.8" y="20.7" class="st5" width="2.7" height="16.8"/>
	<g>
		<circle class="st3" cx="99.2" cy="29.8" r="11.3"/>
		<g>
			<g>
				<circle class="st4" cx="99.2" cy="29.8" r="5.3"/>
			</g>
			
				<rect x="93.3" y="28.9" transform="matrix(0.7071 0.7071 -0.7071 0.7071 50.1157 -61.4485)" class="st3" width="11.9" height="1.7"/>
		</g>
	</g>
	<g>
		<rect x="24" y="27" transform="matrix(-0.7216 -0.6923 0.6923 -0.7216 38.6723 78.5906)" class="st2" width="22.4" height="9"/>
		<g>
			<polygon class="st4" points="8.9,46.3 11.6,48.9 23.7,36.3 30.8,43.2 18.7,55.8 21.4,58.4 29.2,53.9 40.1,42.5 24,27 13,38.4 			
				"/>
		</g>
	</g>
	<rect x="72.9" y="105.5" class="st1" width="20.7" height="2.6"/>
	<rect x="72.9" y="119.1" class="st1" width="20.7" height="2.6"/>
</g>
</svg>
