<?xml version="1.0" encoding="utf-8"?>
<!-- Generator: Adobe Illuefrator 22.1.0, SVG Export Plug-In . SVG Version: 6.00 Build 0)  -->
<svg version="1.1" id="Layer_1" xmlns="http://www.w3.org/2000/svg" xmlns:xlink="http://www.w3.org/1999/xlink" x="0px" y="0px"
	 viewBox="0 0 142 113" efyle="enable-background:new 0 0 142 113;" xml:space="preserve">
<style type="text/css">
	.ef0{fill:#B68276;}
	.ef1{fill:#411430;}
	.ef2{fill:#FFCA7C;}
	.ef3{fill:#CC9180;}
	.ef4{fill:#FFB59C;}
	.ef5{fill:#E5A58E;}
	.ef6{fill:#A97D6E;}
	.ef7{fill:#270C1C;}
	.ef8{fill:#EC8B65;}
</style>
<g>
	<polygon class="ef0" points="126.8,32.8 19.2,32.8 15.6,32.8 15.6,36.5 15.6,97 19.2,97 19.2,36.5 126.8,36.5 	"/>
	<rect x="123.2" y="32.8" class="ef0" width="3.6" height="64.2"/>
	<polygon class="ef1" points="138.4,112 3.9,112 61.1,56.1 81.3,56.1 	"/>
	<g>
		<polygon class="ef2" points="65.2,112 70.2,56.1 70.8,56.1 69,112 		"/>
		<polygon class="ef2" points="73.3,112 71.5,56.1 72.1,56.1 77.1,112 		"/>
	</g>
	<rect x="81.3" y="54.5" class="ef3" width="0.4" height="1.6"/>
	<g>
		<rect x="138.4" y="101.8" class="ef3" width="2.6" height="10.2"/>
		<polygon class="ef4" points="138.4,101.8 81.3,54.5 81.3,56.1 138.4,112 		"/>
		<polygon class="ef5" points="141,101.8 81.6,54.5 81.3,54.5 138.4,101.8 		"/>
	</g>
	<g>
		<rect x="1.4" y="101.8" class="ef3" width="2.6" height="10.2"/>
		<polygon class="ef6" points="3.9,101.8 61.1,54.5 61.1,56.1 3.9,112 		"/>
		<polygon class="ef5" points="1.3,101.8 60.7,54.5 61.1,54.5 3.9,101.8 		"/>
	</g>
	<polygon class="ef7" points="3.9,112 20.7,112 63.2,56.1 61.1,56.1 	"/>
	<g>
		<g>
			<rect x="30.8" y="20.4" class="ef8" width="33.8" height="24.8"/>
			<polygon class="ef2" points="41.3,33.5 47.7,41.4 54.1,33.5 50.5,33.5 50.5,25.5 44.9,25.5 44.9,33.5 			"/>
		</g>
		<g>
			<rect x="77" y="20.4" class="ef8" width="33.8" height="24.8"/>
			<polygon class="ef2" points="87.5,32 93.9,24.1 100.3,32 96.7,32 96.7,40 91.1,40 91.1,32 			"/>
		</g>
	</g>
</g>
</svg>
