<?xml version="1.0" encoding="utf-8"?>
<!-- Generator: Adobe Illustrator 22.1.0, SVG Export Plug-In . SVG Version: 6.00 Build 0)  -->
<svg version="1.1" id="Layer_1" xmlns="http://www.w3.org/2000/svg" xmlns:xlink="http://www.w3.org/1999/xlink" x="0px" y="0px"
	 viewBox="0 0 132 132" style="enable-background:new 0 0 132 132;" xml:space="preserve">
<style type="text/css">
	.st0{fill:#FFCA7C;}
	.st1{fill:#EC8B65;}
	.st2{fill:#CC9180;}
	.st3{fill:#E5A58E;}
	.st4{fill:#A97D6E;}
	.st5{fill:#B68276;}
	.st6{fill:#C58F7E;}
	.st7{fill:#FFB59C;}
	.st8{fill:#411430;}
	.st9{fill:none;stroke:#B68276;stroke-miterlimit:10;}
</style>
<rect x="27.7" y="73.6" class="st0" width="75.4" height="44.4"/>
<polygon class="st1" points="103.1,77.4 27.7,93.2 27.7,77.4 "/>
<g>
	<g>
		<path class="st2" d="M75.4,112.5c-4.4,0-8.1,1.6-8.8,5.5h17.6C83.5,114.1,79.8,112.5,75.4,112.5z"/>
		<polygon class="st3" points="80,114.4 70.8,114.4 71.8,77.4 79,77.4 		"/>
	</g>
	<polygon class="st4" points="79,77.4 79,79 71.6,82.9 71.8,77.4 	"/>
</g>
<g>
	<g>
		<path class="st2" d="M37.8,112.5c-4.4,0-8.1,1.6-8.8,5.5h17.6C45.9,114.1,42.2,112.5,37.8,112.5z"/>
		<polygon class="st3" points="42.4,114.4 33.1,114.4 34.2,77.4 41.3,77.4 		"/>
	</g>
	<polygon class="st4" points="41.3,77.4 41.4,79 34,82.9 34.2,77.4 	"/>
</g>
<g>
	<g>
		<path class="st2" d="M56.6,112.5c-4.4,0-8.1,1.6-8.8,5.5h17.6C64.7,114.1,61,112.5,56.6,112.5z"/>
		<polygon class="st3" points="61.2,114.4 52,114.4 53,77.4 60.2,77.4 		"/>
	</g>
	<polygon class="st4" points="60.2,77.4 60.2,79.8 52.8,88.1 53,77.4 	"/>
</g>
<g>
	<g>
		<path class="st2" d="M94.2,112.5c-4.4,0-8.1,1.6-8.8,5.5H103C102.3,114.1,98.7,112.5,94.2,112.5z"/>
		<polygon class="st3" points="98.8,114.4 89.6,114.4 90.6,77.4 97.8,77.4 		"/>
	</g>
	<polygon class="st4" points="97.8,77.4 97.9,79.8 90.4,88.1 90.6,77.4 	"/>
</g>
<g>
	<rect x="28.6" y="56.4" class="st5" width="74.8" height="17.2"/>
	<path class="st6" d="M103.4,56.4C103.4,77.1,86.7,70,66,70s-37.4,7-37.4-13.6S45.4,19,66,19S103.4,35.7,103.4,56.4z"/>
</g>
<g>
	<rect x="39.8" y="56.4" class="st2" width="52.4" height="17.2"/>
	<path class="st3" d="M92.2,56.4C92.2,77.1,80.5,70,66,70s-26.2,7-26.2-13.6S51.6,19,66,19S92.2,35.7,92.2,56.4z"/>
</g>
<g>
	<rect x="56.6" y="56.4" class="st7" width="18.8" height="17.2"/>
	<path class="st7" d="M75.4,56.4C75.4,77.1,71.2,70,66,70s-9.4,7-9.4-13.6S60.8,19,66,19S75.4,35.7,75.4,56.4z"/>
</g>
<g>
	<rect x="10" y="126.9" class="st5" width="112" height="4.4"/>
	<rect x="17.4" y="122.4" class="st5" width="97.2" height="4.4"/>
	<rect x="25.2" y="118" class="st5" width="81.7" height="4.4"/>
</g>
<rect x="22.9" y="71.9" class="st2" width="86.2" height="5.6"/>
<g>
	<g>
		<path class="st2" d="M56.5,112.5c-4.4,0-8.1,1.6-8.8,5.5h17.6C64.6,114.1,61,112.5,56.5,112.5z"/>
		<polygon class="st3" points="61.1,114.4 51.9,114.4 52.9,77.4 60.1,77.4 		"/>
	</g>
	<polygon class="st4" points="60.1,77.4 60.2,79 52.8,82.9 52.9,77.4 	"/>
</g>
<g>
	<g>
		<path class="st2" d="M94.3,112.5c-4.4,0-8.1,1.6-8.8,5.5h17.6C102.4,114.1,98.7,112.5,94.3,112.5z"/>
		<polygon class="st3" points="98.9,114.4 89.7,114.4 90.7,77.4 97.9,77.4 		"/>
	</g>
	<polygon class="st4" points="97.9,77.4 97.9,79 90.6,82.9 90.7,77.4 	"/>
</g>
<g>
	<polygon class="st5" points="116.3,71.9 14.7,71.9 11.6,66.2 66,37.8 120.4,66.2 	"/>
	<polygon class="st3" points="98.9,65.1 33.1,65.1 33.1,61.7 66,44.5 98.9,61.7 	"/>
</g>
<circle class="st8" cx="66" cy="57.4" r="5.2"/>
<rect x="57" y="17.8" class="st6" width="18" height="3.1"/>
<line class="st9" x1="66" y1="18.2" x2="66" y2="0.7"/>
<rect x="65.5" y="2.1" class="st1" width="7.3" height="9.3"/>
<rect x="72.8" y="4.1" class="st1" width="7.3" height="9.3"/>
</svg>
