<?xml version="1.0" encoding="utf-8"?>
<!-- Generator: Adobe Illustrator 22.1.0, SVG Export Plug-In . SVG Version: 6.00 Build 0)  -->
<svg version="1.1" id="Layer_1" xmlns="http://www.w3.org/2000/svg" xmlns:xlink="http://www.w3.org/1999/xlink" x="0px" y="0px"
	 viewBox="0 0 142 113" style="enable-background:new 0 0 142 113;" xml:space="preserve">
<style type="text/css">
	.st0{fill:#B68276;}
	.st1{fill:#411430;}
	.st2{fill:#FFCA7C;}
	.st3{fill:#CC9180;}
	.st4{fill:#FFB59C;}
	.st5{fill:#E5A58E;}
	.st6{fill:#A97D6E;}
	.st7{fill:#270C1C;}
	.st8{fill:#EC8B65;}
</style>
<g>
	<polygon class="st0" points="126.8,22.8 19.2,22.8 15.6,22.8 15.6,26.5 15.6,87 19.2,87 19.2,26.5 126.8,26.5 	"/>
	<rect x="123.2" y="22.8" class="st0" width="3.6" height="64.2"/>
	<polygon class="st1" points="138.4,102 3.9,102 61.1,46.1 81.3,46.1 	"/>
	<g>
		<polygon class="st2" points="65.2,102 70.2,46.1 70.8,46.1 69,102 		"/>
		<polygon class="st2" points="73.3,102 71.5,46.1 72.1,46.1 77.1,102 		"/>
	</g>
	<rect x="81.3" y="44.5" class="st3" width="0.4" height="1.6"/>
	<g>
		<rect x="138.4" y="91.8" class="st3" width="2.6" height="10.2"/>
		<polygon class="st4" points="138.4,91.8 81.3,44.5 81.3,46.1 138.4,102 		"/>
		<polygon class="st5" points="141,91.8 81.6,44.5 81.3,44.5 138.4,91.8 		"/>
	</g>
	<g>
		
			<rect x="1.3" y="91.8" transform="matrix(-1 -4.487534e-11 4.487534e-11 -1 5.289 193.8302)" class="st3" width="2.6" height="10.2"/>
		<polygon class="st6" points="3.9,91.8 61.1,44.5 61.1,46.1 3.9,102 		"/>
		<polygon class="st5" points="1.3,91.8 60.7,44.5 61.1,44.5 3.9,91.8 		"/>
	</g>
	<polygon class="st7" points="3.9,102 20.7,102 63.2,46.1 61.1,46.1 	"/>
	<g>
		<g>
			<rect x="30.8" y="10.4" class="st8" width="33.8" height="24.8"/>
			<polygon class="st2" points="41.3,23.5 47.7,31.4 54.1,23.5 50.5,23.5 50.5,15.5 44.9,15.5 44.9,23.5 			"/>
		</g>
		<g>
			<rect x="77" y="10.4" class="st8" width="33.8" height="24.8"/>
			<polygon class="st2" points="87.5,22 93.9,14.1 100.3,22 96.7,22 96.7,30 91.1,30 91.1,22 			"/>
		</g>
	</g>
</g>
</svg>
