<?xml version="1.0" encoding="utf-8"?>
<!-- Generator: Adobe Illustrator 22.1.0, SVG Export Plug-In . SVG Version: 6.00 Build 0)  -->
<svg version="1.1" id="Layer_1" xmlns="http://www.w3.org/2000/svg" xmlns:xlink="http://www.w3.org/1999/xlink" x="0px" y="0px"
	 viewBox="0 0 132 132" style="enable-background:new 0 0 132 132;" xml:space="preserve">
<style type="text/css">
	.st0{fill:#C58F7E;}
	.st1{fill:#E5A58E;}
	.st2{fill:#B68276;}
	.st3{fill:#FFB59C;}
	.st4{fill:#411430;}
	.st5{fill:#FFCA7C;}
	.st6{fill:#A97D6E;}
	.st7{fill:#EC8B65;}
	.st8{fill:#270C1C;}
</style>
<g>
	<rect x="92.3" y="24.8" class="st0" width="5.2" height="35.2"/>
</g>
<g>
	<polygon class="st1" points="100.4,36.8 89.5,36.8 85.7,28.2 100.4,28.2 	"/>
</g>
<g>
	<path class="st0" d="M112.7,118.6h-8.1V85.8h14.3v26.6C118.8,115.8,116.1,118.6,112.7,118.6z"/>
</g>
<g>
	<path class="st1" d="M98.4,128.4H18.8c-3.4,0-6.2-2.8-6.2-6.2V85.8h91.8v36.4C104.5,125.7,101.8,128.4,98.4,128.4z"/>
</g>
<g>
	<polygon class="st2" points="117,79.9 14.5,79.9 12.7,85.8 118.8,85.8 	"/>
</g>
<g>
	<g>
		<rect x="107.2" y="92" class="st3" width="8.1" height="22.8"/>
	</g>
	<g>
		<rect x="110.1" y="95.9" class="st4" width="2.3" height="15"/>
	</g>
</g>
<g>
	<g>
		<g>
			<rect x="26.8" y="94.8" class="st2" width="6.9" height="6.9"/>
		</g>
		<g>
			<rect x="37.9" y="94.8" class="st2" width="6.9" height="6.9"/>
		</g>
		<g>
			<rect x="49.1" y="94.8" class="st2" width="6.9" height="6.9"/>
		</g>
		<g>
			<rect x="60.3" y="94.8" class="st2" width="6.9" height="6.9"/>
		</g>
		<g>
			<rect x="71.5" y="94.8" class="st2" width="6.9" height="6.9"/>
		</g>
	</g>
	<g>
		<g>
			<rect x="26.8" y="104.9" class="st2" width="6.9" height="6.9"/>
		</g>
		<g>
			<rect x="37.9" y="104.9" class="st2" width="6.9" height="6.9"/>
		</g>
		<g>
			<rect x="49.1" y="104.9" class="st2" width="6.9" height="6.9"/>
		</g>
		<g>
			<rect x="60.3" y="104.9" class="st2" width="6.9" height="6.9"/>
		</g>
		<g>
			<rect x="71.5" y="104.9" class="st2" width="6.9" height="6.9"/>
		</g>
	</g>
	<g>
		<g>
			<rect x="26.8" y="115" class="st2" width="6.9" height="6.9"/>
		</g>
		<g>
			<rect x="37.9" y="115" class="st2" width="6.9" height="6.9"/>
		</g>
		<g>
			<rect x="49.1" y="115" class="st2" width="6.9" height="6.9"/>
		</g>
		<g>
			<rect x="60.3" y="115" class="st2" width="6.9" height="6.9"/>
		</g>
		<g>
			<rect x="71.5" y="115" class="st2" width="6.9" height="6.9"/>
		</g>
	</g>
</g>
<g>
	<path class="st1" d="M118,82.9H13.5c-1.2,0-2.2-1-2.2-2.2v-4.8h108.9v4.8C120.2,81.9,119.2,82.9,118,82.9z"/>
</g>
<g>
	<polygon class="st3" points="120.2,75.9 11.3,75.9 22.2,58.2 109.3,58.2 	"/>
</g>
<g>
	<g>
		<path class="st3" d="M104.6,30.2H65.9c-1.2,0-2.1-1-2.1-2.1V6.4c0-1.2,1-2.1,2.1-2.1h38.7c1.2,0,2.1,1,2.1,2.1V28
			C106.7,29.2,105.8,30.2,104.6,30.2z"/>
	</g>
	<g>
		<rect x="66.4" y="6.6" class="st4" width="37.6" height="21.7"/>
	</g>
</g>
<g>
	<g>
		<rect x="97.6" y="15.7" class="st5" width="3.5" height="8.1"/>
	</g>
	<g>
		<rect x="92.3" y="15.7" class="st5" width="3.5" height="8.1"/>
	</g>
	<g>
		<rect x="85.1" y="15.7" class="st5" width="3.5" height="8.1"/>
	</g>
	<g>
		<rect x="89.7" y="22.4" class="st5" width="1.4" height="1.4"/>
	</g>
</g>
<g>
	<rect x="104.5" y="85.8" class="st6" width="1.8" height="32.8"/>
</g>
<g>
	<rect x="92.3" y="36.8" class="st6" width="5.2" height="3.8"/>
</g>
<g>
	<g>
		<path class="st7" d="M87.2,58c-2.1,5.3-6.4,11.6-10.7,8.2c-5.2,1.5-7.8-5.6-7.7-11.2c0.1-5.1,3.6-8.2,11.1-7
			C87.3,49.3,89,53.4,87.2,58z"/>
	</g>
	<g>
		<path class="st6" d="M80.1,48.1L79.6,48c0.5-2.4,2.5-3.8,3-4l0.2,0.5C82.4,44.7,80.5,45.9,80.1,48.1z"/>
	</g>
</g>
<g>
	<g>
		<circle class="st7" cx="58.4" cy="54.3" r="15.5"/>
	</g>
	<g>
		<path class="st6" d="M54,39.4c-0.9-3.4,1.5-8.7,2.5-9.8l0.6,0.5c-0.8,0.9-3.1,6-2.3,9.1L54,39.4z"/>
	</g>
</g>
<g>
	<polygon class="st8" points="66.4,28.2 72.5,21.7 72.5,11.2 104,11.2 104,6.6 66.4,6.6 	"/>
</g>
</svg>
