<?xml version="1.0" encoding="utf-8"?>
<!-- Generator: Adobe Illuijrator 22.1.0, SVG Export Plug-In . SVG Version: 6.00 Build 0)  -->
<svg version="1.1" id="Layer_1" xmlns="http://www.w3.org/2000/svg" xmlns:xlink="http://www.w3.org/1999/xlink" x="0px" y="0px"
	 viewBox="0 0 142 113" ijyle="enable-background:new 0 0 142 113;" xml:space="preserve">
<style type="text/css">
	.ij0{fill:#4D1838;}
	.ij1{fill:#E5A58E;}
	.ij2{fill:#B68276;}
	.ij3{fill:#EC8B65;}
</style>
<rect x="85.6" y="69.5" transform="matrix(0.6224 -0.7827 0.7827 0.6224 -31.391 102.9341)" class="ij0" width="10.7" height="29"/>
<path class="ij1" d="M125.4,90.6c-9.6-6.3-19.7-12.8-22.6-14.4C98.7,74,94.3,79,91,82.5c-2.7,2.9-8.1,10.1-5.5,12.6
	c4.3,2.5,12,8.7,20.3,16.2l0,0C113,115.8,132.5,97.2,125.4,90.6z"/>
<rect x="33" y="39.6" transform="matrix(0.5719 -0.8203 0.8203 0.5719 -28.0994 50.5645)" class="ij0" width="2.7" height="25.2"/>
<rect x="40.3" y="83.3" transform="matrix(0.9958 -9.202332e-02 9.202332e-02 0.9958 -7.5993 4.5309)" class="ij0" width="10.1" height="2.7"/>
<rect x="39.5" y="30.2" transform="matrix(0.7061 -0.7081 0.7081 0.7061 -18.8629 41.779)" class="ij0" width="2.7" height="26.8"/>
<rect x="48.4" y="23.3" transform="matrix(0.7578 -0.6525 0.6525 0.7578 -11.4805 41.2249)" class="ij0" width="2.7" height="25.5"/>
<rect x="59.8" y="21.7" transform="matrix(0.8069 -0.5907 0.5907 0.8069 -7.252 42.3325)" class="ij0" width="2.7" height="21.2"/>
<circle class="ij0" cx="99.5" cy="86.3" r="3.7"/>
<path class="ij2" d="M82.1,89.7L95,74.2c0,0,1-5.5-0.4-8.6c-1.1-2.5-21.8-27.1-23.9-29.5c-8.2,2.7-26,17-30.6,25.7
	c4.7,3.5,8.4,6.1,10.1,7.6s1.7,3.8,1.9,5.5C54.1,77.3,65,90,65,90S74.6,92.3,82.1,89.7z"/>
<path class="ij3" d="M60.3,37.8l6.7-4.7c0,0-6.7-8.8-7.3-9.7c-1.2-0.1-2.8,0.4-4.3,1.7c-1.3,1-2.3,2.1-2.5,3
	C54.5,30,60.3,37.8,60.3,37.8z"/>
<path class="ij3" d="M51.2,25.7c-1.6-2.2-3.4-4.7-4.9-7c-1-1.6-1.2-3.7,0.7-5.2c1.2-0.9,3.2-1.4,5.2,1s5.8,6.9,5.8,6.9
	s-2.3-0.7-4.5,0.9C52.6,23.2,51.3,24.7,51.2,25.7z"/>
<path class="ij3" d="M51.9,44l6.2-5.2c0,0-10.4-11.4-11.1-12.2c-1.2,0-2.7,0.7-4.2,2.1c-1.2,1.1-2.1,2.3-2.2,3.2
	C42.4,33.6,51.9,44,51.9,44z"/>
<path class="ij3" d="M37.8,28.7c-1.7-2-3.8-4.3-5.5-6.5c-1.1-1.5-1.5-3.6,0.2-5.2c1.1-1,3.1-1.6,5.3,0.6c2.2,2.2,6.4,6.4,6.4,6.4
	s-2.4-0.5-4.4,1.3C38.9,26.1,37.8,27.7,37.8,28.7z"/>
<path class="ij3" d="M43.3,51.1l6-5.6c0,0-11.6-11.4-12.4-12.1c-1.2,0-2.7,0.8-4,2.3c-1.1,1.2-2,2.4-2,3.3
	C32.7,40.6,43.3,51.1,43.3,51.1z"/>
<path class="ij3" d="M28.4,36.6c-1.9-1.9-4-4.1-5.8-6.2c-1.2-1.4-2.7-4.3-1-6c1.1-1.1,2.9-1.7,5.3,0.3c2.6,2.2,7.7,6.8,7.7,6.8
	s-2.4-0.3-4.3,1.6C29.4,33.9,28.4,35.6,28.4,36.6z"/>
<path class="ij3" d="M37.6,59.6l5-6.4c0,0-13.3-9.4-14.2-10c-1.2,0.2-2.5,1.2-3.6,2.9c-0.9,1.4-1.6,2.7-1.5,3.6
	C25.4,51,37.6,59.6,37.6,59.6z"/>
<path class="ij3" d="M21.4,48c-2.1-1.6-3-2.3-5.1-4.1c-1.4-1.2-3.3-3.8-2-5.8c0.9-1.2,2.6-2.1,5.3-0.6c2.9,1.7,7,4.4,7,4.4
	s-2.4,0.1-4,2.3C21.9,45.2,21.2,47,21.4,48z"/>
<path class="ij3" d="M65.7,89.8C65.5,87.2,55.5,75.3,52,75c-3.4,3-6.5,6.6-6.5,6.6S44.9,85,46.3,87s3.1,3,4.1,3.4
	C52.9,90.4,65.7,89.8,65.7,89.8z"/>
<path class="ij3" d="M45.4,89.2c-1.6-2.4-2-7.3-1.3-8.6c-2.4-0.5-5.4-0.3-6.1,0c-1.2-1-5.3-3.9-9.5-1.3c-2.1,1.3-0.8,2.8,0.3,3.4
	c1.1,0.6,7,3.5,6.7,3.2C35.5,85.8,42.7,88.2,45.4,89.2z"/>
<path class="ij0" d="M21.4,48c0.3,0.4,2.2-1,3.5-2.8s2.2-2.9,1.7-3.3c-1.5-0.1-3.3,0.5-4.4,1.7C21.2,44.8,20.9,47.4,21.4,48z"/>
<path class="ij0" d="M28.4,36.6c1.4,0.3,2.8-0.9,3.8-1.7c1.1-1,2.2-2.8,2.4-3.4c-1.7-0.7-3.3,0-4.5,0.9
	C29.1,33.2,27.6,35.8,28.4,36.6z"/>
<path class="ij0" d="M37.8,28.7c1.3,0.2,3.5-1.3,4.1-1.8c0.7-0.5,2-2,2.3-3c-2-0.7-3.5-0.1-4.7,0.8C38.4,25.7,37.2,28,37.8,28.7z"/>
<path class="ij0" d="M51.2,25.7c1.6,0.3,3.5-1,4.1-1.4s2.6-2,2.8-2.8c-1.5-0.9-3.3-0.6-4.7,0.3C52,22.8,50.9,24.5,51.2,25.7z"/>
<circle class="ij0" cx="67.3" cy="79.3" r="4.3"/>
<path class="ij0" d="M45.4,89.2c0.7-0.6,1-2.7,0.7-4.3c-0.2-1.2-1.4-4.2-2-4.3c-0.6,0.9-0.9,2.9-0.7,4.4
	C43.6,87,44.7,88.8,45.4,89.2z"/>
</svg>
