<?xml version="1.0" encoding="utf-8"?>
<!-- Generator: Adobe Illustrator 22.1.0, SVG Export Plug-In . SVG Version: 6.00 Build 0)  -->
<svg version="1.1" id="Layer_1" xmlns="http://www.w3.org/2000/svg" xmlns:xlink="http://www.w3.org/1999/xlink" x="0px" y="0px"
	 viewBox="0 0 142 113" style="enable-background:new 0 0 142 113;" xml:space="preserve">
<style type="text/css">
	.st0{fill:#4D1838;}
	.st1{fill:#E5A58E;}
	.st2{fill:#B68276;}
	.st3{fill:#EC8B65;}
</style>
<rect x="76.4" y="72.7" transform="matrix(-0.7827 -0.6224 0.6224 -0.7827 113.5558 195.667)" class="st0" width="29" height="10.7"/>
<path class="st1" d="M125.4,84.6c-9.6-6.3-19.7-12.8-22.6-14.4c-4.1-2.2-8.5,2.8-11.8,6.3c-2.7,2.9-8.1,10.1-5.5,12.6
	c4.3,2.5,12,8.7,20.3,16.2c0,0,0,0,0,0C113,109.8,132.5,91.2,125.4,84.6z"/>
<rect x="21.8" y="44.9" transform="matrix(-0.8204 -0.5719 0.5719 -0.8204 36.1648 103.8196)" class="st0" width="25.2" height="2.7"/>
<rect x="40.3" y="77.3" transform="matrix(-0.9958 9.202731e-02 -9.202731e-02 -0.9958 97.73 152.8163)" class="st0" width="10.1" height="2.7"/>
<rect x="27.5" y="36.2" transform="matrix(-0.7081 -0.7061 0.7061 -0.7081 43.3468 93.0822)" class="st0" width="26.8" height="2.7"/>
<rect x="37.1" y="28.8" transform="matrix(-0.6525 -0.7578 0.7578 -0.6525 59.4683 87.5257)" class="st0" width="25.5" height="2.7"/>
<rect x="50.6" y="24.9" transform="matrix(-0.5907 -0.8069 0.8069 -0.5907 76.0897 91.1461)" class="st0" width="21.2" height="2.7"/>
<circle class="st0" cx="99.5" cy="80.3" r="3.7"/>
<path class="st2" d="M82.1,83.7l12.9-15.5c0,0,1-5.5-0.4-8.6c-1.1-2.5-21.8-27.1-23.9-29.5c-8.2,2.7-26,17-30.6,25.7
	c4.7,3.5,8.4,6.1,10.1,7.6s1.7,3.8,1.9,5.5c2,2.4,12.9,15.1,12.9,15.1S74.6,86.3,82.1,83.7z"/>
<path class="st3" d="M60.3,31.8l6.7-4.7c0,0-6.7-8.8-7.3-9.7c-1.2-0.1-2.8,0.4-4.3,1.7c-1.3,1-2.3,2.1-2.5,3
	C54.5,24,60.3,31.8,60.3,31.8z"/>
<path class="st3" d="M51.2,19.7c-1.6-2.2-3.4-4.7-4.9-7c-1-1.6-1.2-3.7,0.7-5.2c1.2-0.9,3.2-1.4,5.2,1c2,2.4,5.8,6.9,5.8,6.9
	s-2.3-0.7-4.5,0.9C52.6,17.2,51.3,18.7,51.2,19.7z"/>
<path class="st3" d="M51.9,38l6.2-5.2c0,0-10.4-11.4-11.1-12.2c-1.2,0-2.7,0.7-4.2,2.1c-1.2,1.1-2.1,2.3-2.2,3.2
	C42.4,27.6,51.9,38,51.9,38z"/>
<path class="st3" d="M37.8,22.7c-1.7-2-3.8-4.3-5.5-6.5c-1.1-1.5-1.5-3.6,0.2-5.2c1.1-1,3.1-1.6,5.3,0.6c2.2,2.2,6.4,6.4,6.4,6.4
	s-2.4-0.5-4.4,1.3C38.9,20.1,37.8,21.7,37.8,22.7z"/>
<path class="st3" d="M43.3,45.1l6-5.6c0,0-11.6-11.4-12.4-12.1c-1.2,0-2.7,0.8-4,2.3c-1.1,1.2-2,2.4-2,3.3
	C32.7,34.6,43.3,45.1,43.3,45.1z"/>
<path class="st3" d="M28.4,30.6c-1.9-1.9-4-4.1-5.8-6.2c-1.2-1.4-2.7-4.3-1-6c1.1-1.1,2.9-1.7,5.3,0.3c2.6,2.2,7.7,6.8,7.7,6.8
	s-2.4-0.3-4.3,1.6C29.4,27.9,28.4,29.6,28.4,30.6z"/>
<path class="st3" d="M37.6,53.6l5-6.4c0,0-13.3-9.4-14.2-10c-1.2,0.2-2.5,1.2-3.6,2.9c-0.9,1.4-1.6,2.7-1.5,3.6
	C25.4,45,37.6,53.6,37.6,53.6z"/>
<path class="st3" d="M21.4,42c-2.1-1.6-3-2.3-5.1-4.1c-1.4-1.2-3.3-3.8-2-5.8c0.9-1.2,2.6-2.1,5.3-0.6c2.9,1.7,7,4.4,7,4.4
	s-2.4,0.1-4,2.3C21.9,39.2,21.2,41,21.4,42z"/>
<path class="st3" d="M65.7,83.8C65.5,81.2,55.5,69.3,52,69c-3.4,3-6.5,6.6-6.5,6.6S44.9,79,46.3,81s3.1,3,4.1,3.4
	C52.9,84.4,65.7,83.8,65.7,83.8z"/>
<path class="st3" d="M45.4,83.2c-1.6-2.4-2-7.3-1.3-8.6c-2.4-0.5-5.4-0.3-6.1,0c-1.2-1-5.3-3.9-9.5-1.3c-2.1,1.3-0.8,2.8,0.3,3.4
	c1.1,0.6,7,3.5,6.7,3.2C35.5,79.8,42.7,82.2,45.4,83.2z"/>
<path class="st0" d="M21.4,42c0.3,0.4,2.2-1,3.5-2.8s2.2-2.9,1.7-3.3c-1.5-0.1-3.3,0.5-4.4,1.7C21.2,38.8,20.9,41.4,21.4,42z"/>
<path class="st0" d="M28.4,30.6c1.4,0.3,2.8-0.9,3.8-1.7c1.1-1,2.2-2.8,2.4-3.4c-1.7-0.7-3.3,0-4.5,0.9
	C29.1,27.2,27.6,29.8,28.4,30.6z"/>
<path class="st0" d="M37.8,22.7c1.3,0.2,3.5-1.3,4.1-1.8c0.7-0.5,2-2,2.3-3c-2-0.7-3.5-0.1-4.7,0.8C38.4,19.7,37.2,22,37.8,22.7z"/>
<path class="st0" d="M51.2,19.7c1.6,0.3,3.5-1,4.1-1.4c0.6-0.4,2.6-2,2.8-2.8c-1.5-0.9-3.3-0.6-4.7,0.3C52,16.8,50.9,18.5,51.2,19.7
	z"/>
<circle class="st0" cx="67.3" cy="73.3" r="4.3"/>
<path class="st0" d="M45.4,83.2c0.7-0.6,1-2.7,0.7-4.3c-0.2-1.2-1.4-4.2-2-4.3c-0.6,0.9-0.9,2.9-0.7,4.4
	C43.6,81,44.7,82.8,45.4,83.2z"/>
</svg>
