<?xml version="1.0" encoding="utf-8"?>
<!-- Generator: Adobe Illustrator 22.1.0, SVG Export Plug-In . SVG Version: 6.00 Build 0)  -->
<svg version="1.1" id="Layer_1" xmlns="http://www.w3.org/2000/svg" xmlns:xlink="http://www.w3.org/1999/xlink" x="0px" y="0px"
	 viewBox="0 0 132 132" style="enable-background:new 0 0 132 132;" xml:space="preserve">
<style type="text/css">
	.st0{fill:#CC9180;}
	.st1{fill:#FFB59C;}
	.st2{fill:#A97D6E;}
	.st3{fill:#411430;}
	.st4{fill:none;stroke:#E5A58E;stroke-width:2.4885;stroke-linecap:round;stroke-linejoin:round;stroke-miterlimit:10;}
	.st5{fill:none;stroke:#411430;stroke-width:0.9954;stroke-miterlimit:10;}
	.st6{fill:none;stroke:#FFCA7C;stroke-width:0.9954;stroke-miterlimit:10;}
	.st7{fill:#270C1C;}
</style>
<g>
	<path class="st0" d="M122.6,131.4H9.4c-4.6,0-8.4-3.8-8.4-8.4V20.3c0-4.6,3.8-8.4,8.4-8.4h113.2c4.6,0,8.4,3.8,8.4,8.4V123
		C131,127.6,127.2,131.4,122.6,131.4z"/>
	<polygon class="st1" points="9.4,100.6 9.4,100.6 122.6,100.6 122.6,22.1 	"/>
	<polygon class="st2" points="122.6,22.1 9.4,22.1 9.4,100.6 122.6,22.1 	"/>
	<g>
		<g>
			<circle class="st3" cx="24.2" cy="116.7" r="9.6"/>
			<line class="st4" x1="28.4" y1="112.5" x2="19.9" y2="121"/>
		</g>
		<g>
			<circle class="st3" cx="107.8" cy="116.7" r="9.6"/>
			<line class="st4" x1="105.5" y1="111.2" x2="110.2" y2="122.2"/>
		</g>
	</g>
	<path class="st3" d="M106.1,94.3c-26.7,2.2-53.6,2.2-80.2,0c-3.9-0.3-7-3.4-7.3-7.2c-1.4-17.1-1.4-34.4,0-51.5
		c0.3-3.9,3.4-6.9,7.2-7.2c26.7-2.3,53.6-2.3,80.3,0c3.9,0.3,6.9,3.4,7.2,7.2c1.4,17.1,1.4,34.4,0,51.5
		C113.1,90.9,110,94,106.1,94.3z"/>
	<g>
		<g>
			<line class="st5" x1="60.9" y1="109.5" x2="71.1" y2="109.5"/>
			<line class="st5" x1="58.4" y1="112.7" x2="73.6" y2="112.7"/>
			<line class="st5" x1="55.6" y1="115.9" x2="76.4" y2="115.9"/>
		</g>
		<g>
			<line class="st5" x1="71.1" y1="122.3" x2="60.9" y2="122.3"/>
			<line class="st5" x1="73.6" y1="119.1" x2="58.4" y2="119.1"/>
		</g>
	</g>
	<polyline class="st6" points="28.9,66.1 46.2,66.1 50.9,41.4 54,79.2 58.8,59.1 60.7,66.3 103.8,66.3 	"/>
	<path class="st7" d="M27.9,40.2c1.3-4.2,5.4-5.6,10.2-6c13.4-1.4,53.8-0.3,75,0.4c-0.8-3.3-3.6-5.7-7-6.1
		c-26.6-2.5-53.6-2.7-80.3-0.6c-3.9,0.3-6.9,3.3-7.3,7.2c-1.5,17.1-1.6,34.4-0.4,51.5c0.3,3.9,3.4,7,7.2,7.3
		c0.9,0.1,1.8,0.2,2.8,0.2C26.1,76.5,26.7,44.2,27.9,40.2z"/>
</g>
</svg>
