<?xml version="1.0" encoding="utf-8"?>
<!-- Generator: Adobe Illustrator 22.1.0, SVG Export Plug-In . SVG Version: 6.00 Build 0)  -->
<svg version="1.1" id="Layer_1" xmlns="http://www.w3.org/2000/svg" xmlns:xlink="http://www.w3.org/1999/xlink" x="0px" y="0px"
	 viewBox="0 0 142 113" style="enable-background:new 0 0 142 113;" xml:space="preserve">
<style type="text/css">
	.st0{fill:#C58F7E;}
	.st1{fill:#E5A58E;}
	.st2{fill:#FFB59C;}
	.st3{fill:#411430;}
	.st4{fill:#FFCA7C;}
</style>
<path class="st0" d="M90.9,67.7L90.5,74c-0.1,2.1-1.8,3.7-3.9,3.7H54c-2.1,0-3.8-1.6-3.9-3.7l-0.4-6.3h-3.7L47,82.7
	C47,84,48.1,85,49.4,85h0.2c0.6,0,1.1-0.5,1.1-1.2l0-0.7H90l0,0.7c0,0.6,0.5,1.2,1.1,1.2h0.2c1.3,0,2.3-1,2.4-2.3l0.9-15.1H90.9z"/>
<path class="st1" d="M118.3,107.6H22.4c-0.9,0-1.6-0.7-1.6-1.6v-2.2h99.2v2.2C119.9,106.9,119.2,107.6,118.3,107.6z"/>
<path class="st2" d="M118.6,105.2H22c-1,0-1.7-1.1-1.1-2l8-13.4c0.4-0.6,1-1,1.7-1h78.7c0.7,0,1.3,0.3,1.6,0.9l8.8,13.4
	C120.2,104,119.6,105.2,118.6,105.2z"/>
<polygon class="st0" points="108.3,90.4 31.5,90.4 23.9,103.8 115.9,103.8 "/>
<path class="st1" d="M125.3,5.6c-36.5,3.2-73.5,3.2-110,0c-1.5,0-2.7,1.2-2.7,2.7v61.5c0,3.2,2.7,5.6,5.9,5.3
	c34.4-3.2,69.2-3.2,103.6,0c3.2,0.3,5.9-2.2,5.9-5.3V8.4C128,6.9,126.8,5.6,125.3,5.6z"/>
<path class="st3" d="M124.5,69.9c-35.9-1.2-71.8-1.2-107.6,0V10.5c35.8,1.6,71.8,1.6,107.6,0V69.9z"/>
<path class="st4" d="M70.2,54.2c-9.4,0-17.1-7.7-17.1-17.1S60.8,20,70.2,20s17.1,7.7,17.1,17.1S79.7,54.2,70.2,54.2z M70.2,21
	c-8.9,0-16.1,7.2-16.1,16.1s7.2,16.1,16.1,16.1S86.4,46,86.4,37.1S79.1,21,70.2,21z"/>
<path class="st4" d="M81.8,49.8L69.3,36.8l17.7-3.6l0.1,0.5c0.2,1.1,0.3,2.3,0.3,3.4c0,4.7-1.9,9-5.2,12.3L81.8,49.8z M71.2,37.4
	l10.6,10.9c2.9-3,4.6-7,4.6-11.2c0-0.9-0.1-1.8-0.2-2.7L71.2,37.4z"/>
<rect x="50.9" y="60.1" class="st4" width="41.3" height="1"/>
</svg>
