<?xml version="1.0" encoding="utf-8"?>
<!-- Generator: Adobe Illustrator 22.1.0, SVG Export Plug-In . SVG Version: 6.00 Build 0)  -->
<svg version="1.1" id="Layer_1" xmlns="http://www.w3.org/2000/svg" xmlns:xlink="http://www.w3.org/1999/xlink" x="0px" y="0px"
	 viewBox="0 0 132 132" style="enable-background:new 0 0 132 132;" xml:space="preserve">
<style type="text/css">
	.st0{fill:#EC8B65;}
	.st1{fill:#270C1C;}
	.st2{fill:#411430;}
	.st3{fill:#FFCA7C;}
	.st4{fill:#B68276;}
	.st5{fill:#E5A58E;}
	.st6{fill:#FFB59C;}
	.st7{fill:none;stroke:#411430;stroke-width:1.5441;stroke-miterlimit:10;}
</style>
<rect x="36.6" y="29" class="st0" width="71.8" height="41.4"/>
<g>
	<rect x="122.4" y="63.3" class="st1" width="3.6" height="3.6"/>
	<path class="st2" d="M128.9,70.4h-2.8V59.8h2.8c0.8,0,1.5,0.7,1.5,1.5v7.6C130.4,69.7,129.7,70.4,128.9,70.4z"/>
</g>
<path class="st1" d="M22.2,66.9L5.6,58.7c-0.5-0.3-0.7-0.9-0.5-1.4l4.8-9.1c0.2-0.3,0.6-0.5,0.9-0.3l2.1,1.1
	c0.3,0.2,0.5,0.6,0.3,0.9l-3,5.7c-0.3,0.5-0.1,1.2,0.5,1.4l13.2,6.5L22.2,66.9z"/>
<path class="st2" d="M23.7,70.4h97.6c1.3,0,2.3-1,2.3-2.3V62c0-1.3-1-2.3-2.3-2.3H23.7c-1.3,0-2.3,1-2.3,2.3v6.1
	C21.4,69.4,22.5,70.4,23.7,70.4z"/>
<polygon class="st3" points="101.8,18.7 41.5,18.7 41.5,70.4 113.3,70.4 113.3,30.1 "/>
<polygon class="st0" points="101.8,30.1 101.8,18.7 113.3,30.1 "/>
<path class="st4" d="M117.2,130.4H3.3c-0.7,0-1.3-0.6-1.3-1.3l0.1-6.3h116.5l-0.1,6.3C118.5,129.8,117.9,130.4,117.2,130.4z"/>
<path class="st5" d="M62.2,122.8h56.4c0,0-2.7-14.9-3.9-21.3c-0.7-3.9-2.1-13.7-2.1-15.7s0-4.7,0-6.1c0-2.2-2-10.9-5.3-10.9
	c-3.1,0-16.7,0-16.7,0v2.1H62.2H30v-2.1c0,0-13.6,0-16.7,0c-3.3,0-5.3,8.7-5.3,10.9c0,1.4,0,4.1,0,6.1S6.7,97.6,6,101.4
	c-1.2,6.5-3.9,21.3-3.9,21.3H62.2z"/>
<path class="st2" d="M60.1,118.7h49.5c2,0,3.1-0.5,2.6-2.5c-0.5-2.1-2-5.2-3-8.6c-1.3-4.5-2.9-13.3-2.9-18.7c-5.7,0-46.3,0-46.3,0
	s-40.1,0-45.8,0c0,5.4-1.5,14.3-2.9,18.7c-1,3.4-2.5,6.5-3,8.6c-0.5,2,0.7,2.5,2.6,2.5H60.1z"/>
<g>
	<rect x="32.8" y="116" class="st0" width="55.1" height="3"/>
	<path class="st3" d="M87,117H33.8c-0.5,0-1-0.4-1-1v-1.9c0-0.5,0.4-1,1-1H87c0.5,0,1,0.4,1,1v1.9C87.9,116.5,87.5,117,87,117z"/>
</g>
<g>
	<g>
		<g>
			<path class="st0" d="M25.5,98.4h-4c-0.5,0-0.9-0.4-0.9-0.9v-1.7c0-0.5,0.4-0.9,0.9-0.9h4c0.5,0,0.9,0.4,0.9,0.9v1.7
				C26.4,98,26,98.4,25.5,98.4z"/>
			<path class="st3" d="M25.5,97.6h-4c-0.5,0-0.9-0.4-0.9-0.9v-1.7c0-0.5,0.4-0.9,0.9-0.9h4c0.5,0,0.9,0.4,0.9,0.9v1.7
				C26.4,97.2,26,97.6,25.5,97.6z"/>
		</g>
		<g>
			<path class="st0" d="M33.1,98.4h-4c-0.5,0-0.9-0.4-0.9-0.9v-1.7c0-0.5,0.4-0.9,0.9-0.9h4c0.5,0,0.9,0.4,0.9,0.9v1.7
				C34,98,33.6,98.4,33.1,98.4z"/>
			<path class="st3" d="M33.1,97.6h-4c-0.5,0-0.9-0.4-0.9-0.9v-1.7c0-0.5,0.4-0.9,0.9-0.9h4c0.5,0,0.9,0.4,0.9,0.9v1.7
				C34,97.2,33.6,97.6,33.1,97.6z"/>
		</g>
		<g>
			<path class="st0" d="M40.7,98.4h-4c-0.5,0-0.9-0.4-0.9-0.9v-1.7c0-0.5,0.4-0.9,0.9-0.9h4c0.5,0,0.9,0.4,0.9,0.9v1.7
				C41.5,98,41.1,98.4,40.7,98.4z"/>
			<path class="st3" d="M40.7,97.6h-4c-0.5,0-0.9-0.4-0.9-0.9v-1.7c0-0.5,0.4-0.9,0.9-0.9h4c0.5,0,0.9,0.4,0.9,0.9v1.7
				C41.5,97.2,41.1,97.6,40.7,97.6z"/>
		</g>
		<g>
			<path class="st0" d="M48.2,98.4h-4c-0.5,0-0.9-0.4-0.9-0.9v-1.7c0-0.5,0.4-0.9,0.9-0.9h4c0.5,0,0.9,0.4,0.9,0.9v1.7
				C49.1,98,48.7,98.4,48.2,98.4z"/>
			<path class="st3" d="M48.2,97.6h-4c-0.5,0-0.9-0.4-0.9-0.9v-1.7c0-0.5,0.4-0.9,0.9-0.9h4c0.5,0,0.9,0.4,0.9,0.9v1.7
				C49.1,97.2,48.7,97.6,48.2,97.6z"/>
		</g>
		<g>
			<path class="st0" d="M55.8,98.4h-4c-0.5,0-0.9-0.4-0.9-0.9v-1.7c0-0.5,0.4-0.9,0.9-0.9h4c0.5,0,0.9,0.4,0.9,0.9v1.7
				C56.7,98,56.3,98.4,55.8,98.4z"/>
			<path class="st3" d="M55.8,97.6h-4c-0.5,0-0.9-0.4-0.9-0.9v-1.7c0-0.5,0.4-0.9,0.9-0.9h4c0.5,0,0.9,0.4,0.9,0.9v1.7
				C56.7,97.2,56.3,97.6,55.8,97.6z"/>
		</g>
		<g>
			<path class="st0" d="M63.4,98.4h-4c-0.5,0-0.9-0.4-0.9-0.9v-1.7c0-0.5,0.4-0.9,0.9-0.9h4c0.5,0,0.9,0.4,0.9,0.9v1.7
				C64.3,98,63.9,98.4,63.4,98.4z"/>
			<path class="st3" d="M63.4,97.6h-4c-0.5,0-0.9-0.4-0.9-0.9v-1.7c0-0.5,0.4-0.9,0.9-0.9h4c0.5,0,0.9,0.4,0.9,0.9v1.7
				C64.3,97.2,63.9,97.6,63.4,97.6z"/>
		</g>
		<g>
			<path class="st0" d="M71,98.4h-4c-0.5,0-0.9-0.4-0.9-0.9v-1.7c0-0.5,0.4-0.9,0.9-0.9h4c0.5,0,0.9,0.4,0.9,0.9v1.7
				C71.8,98,71.4,98.4,71,98.4z"/>
			<path class="st3" d="M71,97.6h-4c-0.5,0-0.9-0.4-0.9-0.9v-1.7c0-0.5,0.4-0.9,0.9-0.9h4c0.5,0,0.9,0.4,0.9,0.9v1.7
				C71.8,97.2,71.4,97.6,71,97.6z"/>
		</g>
		<g>
			<path class="st0" d="M78.5,98.4h-4c-0.5,0-0.9-0.4-0.9-0.9v-1.7c0-0.5,0.4-0.9,0.9-0.9h4c0.5,0,0.9,0.4,0.9,0.9v1.7
				C79.4,98,79,98.4,78.5,98.4z"/>
			<path class="st3" d="M78.5,97.6h-4c-0.5,0-0.9-0.4-0.9-0.9v-1.7c0-0.5,0.4-0.9,0.9-0.9h4c0.5,0,0.9,0.4,0.9,0.9v1.7
				C79.4,97.2,79,97.6,78.5,97.6z"/>
		</g>
		<g>
			<path class="st0" d="M86.1,98.4h-4c-0.5,0-0.9-0.4-0.9-0.9v-1.7c0-0.5,0.4-0.9,0.9-0.9h4c0.5,0,0.9,0.4,0.9,0.9v1.7
				C87,98,86.6,98.4,86.1,98.4z"/>
			<path class="st3" d="M86.1,97.6h-4c-0.5,0-0.9-0.4-0.9-0.9v-1.7c0-0.5,0.4-0.9,0.9-0.9h4c0.5,0,0.9,0.4,0.9,0.9v1.7
				C87,97.2,86.6,97.6,86.1,97.6z"/>
		</g>
		<g>
			<path class="st0" d="M93.7,98.4h-4c-0.5,0-0.9-0.4-0.9-0.9v-1.7c0-0.5,0.4-0.9,0.9-0.9h4c0.5,0,0.9,0.4,0.9,0.9v1.7
				C94.6,98,94.2,98.4,93.7,98.4z"/>
			<path class="st3" d="M93.7,97.6h-4c-0.5,0-0.9-0.4-0.9-0.9v-1.7c0-0.5,0.4-0.9,0.9-0.9h4c0.5,0,0.9,0.4,0.9,0.9v1.7
				C94.6,97.2,94.2,97.6,93.7,97.6z"/>
		</g>
		<g>
			<path class="st0" d="M101.3,98.4h-4c-0.5,0-0.9-0.4-0.9-0.9v-1.7c0-0.5,0.4-0.9,0.9-0.9h4c0.5,0,0.9,0.4,0.9,0.9v1.7
				C102.1,98,101.7,98.4,101.3,98.4z"/>
			<path class="st3" d="M101.3,97.6h-4c-0.5,0-0.9-0.4-0.9-0.9v-1.7c0-0.5,0.4-0.9,0.9-0.9h4c0.5,0,0.9,0.4,0.9,0.9v1.7
				C102.1,97.2,101.7,97.6,101.3,97.6z"/>
		</g>
	</g>
	<g>
		<g>
			<path class="st0" d="M27.2,104.6h-4c-0.5,0-0.9-0.4-0.9-0.9v-1.7c0-0.5,0.4-0.9,0.9-0.9h4c0.5,0,0.9,0.4,0.9,0.9v1.7
				C28.1,104.2,27.7,104.6,27.2,104.6z"/>
			<path class="st3" d="M27.2,103.9h-4c-0.5,0-0.9-0.4-0.9-0.9v-1.7c0-0.5,0.4-0.9,0.9-0.9h4c0.5,0,0.9,0.4,0.9,0.9v1.7
				C28.1,103.5,27.7,103.9,27.2,103.9z"/>
		</g>
		<g>
			<path class="st0" d="M34.8,104.6h-4c-0.5,0-0.9-0.4-0.9-0.9v-1.7c0-0.5,0.4-0.9,0.9-0.9h4c0.5,0,0.9,0.4,0.9,0.9v1.7
				C35.7,104.2,35.3,104.6,34.8,104.6z"/>
			<path class="st3" d="M34.8,103.9h-4c-0.5,0-0.9-0.4-0.9-0.9v-1.7c0-0.5,0.4-0.9,0.9-0.9h4c0.5,0,0.9,0.4,0.9,0.9v1.7
				C35.7,103.5,35.3,103.9,34.8,103.9z"/>
		</g>
		<g>
			<path class="st0" d="M42.3,104.6h-4c-0.5,0-0.9-0.4-0.9-0.9v-1.7c0-0.5,0.4-0.9,0.9-0.9h4c0.5,0,0.9,0.4,0.9,0.9v1.7
				C43.2,104.2,42.8,104.6,42.3,104.6z"/>
			<path class="st3" d="M42.3,103.9h-4c-0.5,0-0.9-0.4-0.9-0.9v-1.7c0-0.5,0.4-0.9,0.9-0.9h4c0.5,0,0.9,0.4,0.9,0.9v1.7
				C43.2,103.5,42.8,103.9,42.3,103.9z"/>
		</g>
		<g>
			<path class="st0" d="M49.9,104.6h-4c-0.5,0-0.9-0.4-0.9-0.9v-1.7c0-0.5,0.4-0.9,0.9-0.9h4c0.5,0,0.9,0.4,0.9,0.9v1.7
				C50.8,104.2,50.4,104.6,49.9,104.6z"/>
			<path class="st3" d="M49.9,103.9h-4c-0.5,0-0.9-0.4-0.9-0.9v-1.7c0-0.5,0.4-0.9,0.9-0.9h4c0.5,0,0.9,0.4,0.9,0.9v1.7
				C50.8,103.5,50.4,103.9,49.9,103.9z"/>
		</g>
		<g>
			<path class="st0" d="M57.5,104.6h-4c-0.5,0-0.9-0.4-0.9-0.9v-1.7c0-0.5,0.4-0.9,0.9-0.9h4c0.5,0,0.9,0.4,0.9,0.9v1.7
				C58.4,104.2,58,104.6,57.5,104.6z"/>
			<path class="st3" d="M57.5,103.9h-4c-0.5,0-0.9-0.4-0.9-0.9v-1.7c0-0.5,0.4-0.9,0.9-0.9h4c0.5,0,0.9,0.4,0.9,0.9v1.7
				C58.4,103.5,58,103.9,57.5,103.9z"/>
		</g>
		<g>
			<path class="st0" d="M65.1,104.6h-4c-0.5,0-0.9-0.4-0.9-0.9v-1.7c0-0.5,0.4-0.9,0.9-0.9h4c0.5,0,0.9,0.4,0.9,0.9v1.7
				C66,104.2,65.6,104.6,65.1,104.6z"/>
			<path class="st3" d="M65.1,103.9h-4c-0.5,0-0.9-0.4-0.9-0.9v-1.7c0-0.5,0.4-0.9,0.9-0.9h4c0.5,0,0.9,0.4,0.9,0.9v1.7
				C66,103.5,65.6,103.9,65.1,103.9z"/>
		</g>
		<g>
			<path class="st0" d="M72.6,104.6h-4c-0.5,0-0.9-0.4-0.9-0.9v-1.7c0-0.5,0.4-0.9,0.9-0.9h4c0.5,0,0.9,0.4,0.9,0.9v1.7
				C73.5,104.2,73.1,104.6,72.6,104.6z"/>
			<path class="st3" d="M72.6,103.9h-4c-0.5,0-0.9-0.4-0.9-0.9v-1.7c0-0.5,0.4-0.9,0.9-0.9h4c0.5,0,0.9,0.4,0.9,0.9v1.7
				C73.5,103.5,73.1,103.9,72.6,103.9z"/>
		</g>
		<g>
			<path class="st0" d="M80.2,104.6h-4c-0.5,0-0.9-0.4-0.9-0.9v-1.7c0-0.5,0.4-0.9,0.9-0.9h4c0.5,0,0.9,0.4,0.9,0.9v1.7
				C81.1,104.2,80.7,104.6,80.2,104.6z"/>
			<path class="st3" d="M80.2,103.9h-4c-0.5,0-0.9-0.4-0.9-0.9v-1.7c0-0.5,0.4-0.9,0.9-0.9h4c0.5,0,0.9,0.4,0.9,0.9v1.7
				C81.1,103.5,80.7,103.9,80.2,103.9z"/>
		</g>
		<g>
			<path class="st0" d="M87.8,104.6h-4c-0.5,0-0.9-0.4-0.9-0.9v-1.7c0-0.5,0.4-0.9,0.9-0.9h4c0.5,0,0.9,0.4,0.9,0.9v1.7
				C88.7,104.2,88.3,104.6,87.8,104.6z"/>
			<path class="st3" d="M87.8,103.9h-4c-0.5,0-0.9-0.4-0.9-0.9v-1.7c0-0.5,0.4-0.9,0.9-0.9h4c0.5,0,0.9,0.4,0.9,0.9v1.7
				C88.7,103.5,88.3,103.9,87.8,103.9z"/>
		</g>
		<g>
			<path class="st0" d="M95.4,104.6h-4c-0.5,0-0.9-0.4-0.9-0.9v-1.7c0-0.5,0.4-0.9,0.9-0.9h4c0.5,0,0.9,0.4,0.9,0.9v1.7
				C96.3,104.2,95.9,104.6,95.4,104.6z"/>
			<path class="st3" d="M95.4,103.9h-4c-0.5,0-0.9-0.4-0.9-0.9v-1.7c0-0.5,0.4-0.9,0.9-0.9h4c0.5,0,0.9,0.4,0.9,0.9v1.7
				C96.3,103.5,95.9,103.9,95.4,103.9z"/>
		</g>
		<g>
			<path class="st0" d="M102.9,104.6h-4c-0.5,0-0.9-0.4-0.9-0.9v-1.7c0-0.5,0.4-0.9,0.9-0.9h4c0.5,0,0.9,0.4,0.9,0.9v1.7
				C103.8,104.2,103.4,104.6,102.9,104.6z"/>
			<path class="st3" d="M102.9,103.9h-4c-0.5,0-0.9-0.4-0.9-0.9v-1.7c0-0.5,0.4-0.9,0.9-0.9h4c0.5,0,0.9,0.4,0.9,0.9v1.7
				C103.8,103.5,103.4,103.9,102.9,103.9z"/>
		</g>
	</g>
	<g>
		<g>
			<path class="st0" d="M29.5,110.9h-4c-0.5,0-0.9-0.4-0.9-0.9v-1.7c0-0.5,0.4-0.9,0.9-0.9h4c0.5,0,0.9,0.4,0.9,0.9v1.7
				C30.4,110.5,30,110.9,29.5,110.9z"/>
			<path class="st3" d="M29.5,110.1h-4c-0.5,0-0.9-0.4-0.9-0.9v-1.7c0-0.5,0.4-0.9,0.9-0.9h4c0.5,0,0.9,0.4,0.9,0.9v1.7
				C30.4,109.7,30,110.1,29.5,110.1z"/>
		</g>
		<g>
			<path class="st0" d="M19.4,110.9h-4c-0.5,0-0.9-0.4-0.9-0.9v-1.7c0-0.5,0.4-0.9,0.9-0.9h4c0.5,0,0.9,0.4,0.9,0.9v1.7
				C20.3,110.5,19.9,110.9,19.4,110.9z"/>
			<path class="st3" d="M19.4,110.1h-4c-0.5,0-0.9-0.4-0.9-0.9v-1.7c0-0.5,0.4-0.9,0.9-0.9h4c0.5,0,0.9,0.4,0.9,0.9v1.7
				C20.3,109.7,19.9,110.1,19.4,110.1z"/>
		</g>
		<g>
			<path class="st0" d="M37.1,110.9h-4c-0.5,0-0.9-0.4-0.9-0.9v-1.7c0-0.5,0.4-0.9,0.9-0.9h4c0.5,0,0.9,0.4,0.9,0.9v1.7
				C38,110.5,37.6,110.9,37.1,110.9z"/>
			<path class="st3" d="M37.1,110.1h-4c-0.5,0-0.9-0.4-0.9-0.9v-1.7c0-0.5,0.4-0.9,0.9-0.9h4c0.5,0,0.9,0.4,0.9,0.9v1.7
				C38,109.7,37.6,110.1,37.1,110.1z"/>
		</g>
		<g>
			<path class="st0" d="M44.7,110.9h-4c-0.5,0-0.9-0.4-0.9-0.9v-1.7c0-0.5,0.4-0.9,0.9-0.9h4c0.5,0,0.9,0.4,0.9,0.9v1.7
				C45.6,110.5,45.2,110.9,44.7,110.9z"/>
			<path class="st3" d="M44.7,110.1h-4c-0.5,0-0.9-0.4-0.9-0.9v-1.7c0-0.5,0.4-0.9,0.9-0.9h4c0.5,0,0.9,0.4,0.9,0.9v1.7
				C45.6,109.7,45.2,110.1,44.7,110.1z"/>
		</g>
		<g>
			<path class="st0" d="M52.3,110.9h-4c-0.5,0-0.9-0.4-0.9-0.9v-1.7c0-0.5,0.4-0.9,0.9-0.9h4c0.5,0,0.9,0.4,0.9,0.9v1.7
				C53.2,110.5,52.8,110.9,52.3,110.9z"/>
			<path class="st3" d="M52.3,110.1h-4c-0.5,0-0.9-0.4-0.9-0.9v-1.7c0-0.5,0.4-0.9,0.9-0.9h4c0.5,0,0.9,0.4,0.9,0.9v1.7
				C53.2,109.7,52.8,110.1,52.3,110.1z"/>
		</g>
		<g>
			<path class="st0" d="M59.9,110.9h-4c-0.5,0-0.9-0.4-0.9-0.9v-1.7c0-0.5,0.4-0.9,0.9-0.9h4c0.5,0,0.9,0.4,0.9,0.9v1.7
				C60.7,110.5,60.3,110.9,59.9,110.9z"/>
			<path class="st3" d="M59.9,110.1h-4c-0.5,0-0.9-0.4-0.9-0.9v-1.7c0-0.5,0.4-0.9,0.9-0.9h4c0.5,0,0.9,0.4,0.9,0.9v1.7
				C60.7,109.7,60.3,110.1,59.9,110.1z"/>
		</g>
		<g>
			<path class="st0" d="M67.4,110.9h-4c-0.5,0-0.9-0.4-0.9-0.9v-1.7c0-0.5,0.4-0.9,0.9-0.9h4c0.5,0,0.9,0.4,0.9,0.9v1.7
				C68.3,110.5,67.9,110.9,67.4,110.9z"/>
			<path class="st3" d="M67.4,110.1h-4c-0.5,0-0.9-0.4-0.9-0.9v-1.7c0-0.5,0.4-0.9,0.9-0.9h4c0.5,0,0.9,0.4,0.9,0.9v1.7
				C68.3,109.7,67.9,110.1,67.4,110.1z"/>
		</g>
		<g>
			<path class="st0" d="M75,110.9h-4c-0.5,0-0.9-0.4-0.9-0.9v-1.7c0-0.5,0.4-0.9,0.9-0.9h4c0.5,0,0.9,0.4,0.9,0.9v1.7
				C75.9,110.5,75.5,110.9,75,110.9z"/>
			<path class="st3" d="M75,110.1h-4c-0.5,0-0.9-0.4-0.9-0.9v-1.7c0-0.5,0.4-0.9,0.9-0.9h4c0.5,0,0.9,0.4,0.9,0.9v1.7
				C75.9,109.7,75.5,110.1,75,110.1z"/>
		</g>
		<g>
			<path class="st0" d="M82.6,110.9h-4c-0.5,0-0.9-0.4-0.9-0.9v-1.7c0-0.5,0.4-0.9,0.9-0.9h4c0.5,0,0.9,0.4,0.9,0.9v1.7
				C83.5,110.5,83.1,110.9,82.6,110.9z"/>
			<path class="st3" d="M82.6,110.1h-4c-0.5,0-0.9-0.4-0.9-0.9v-1.7c0-0.5,0.4-0.9,0.9-0.9h4c0.5,0,0.9,0.4,0.9,0.9v1.7
				C83.5,109.7,83.1,110.1,82.6,110.1z"/>
		</g>
		<g>
			<path class="st0" d="M90.2,110.9h-4c-0.5,0-0.9-0.4-0.9-0.9v-1.7c0-0.5,0.4-0.9,0.9-0.9h4c0.5,0,0.9,0.4,0.9,0.9v1.7
				C91,110.5,90.6,110.9,90.2,110.9z"/>
			<path class="st3" d="M90.2,110.1h-4c-0.5,0-0.9-0.4-0.9-0.9v-1.7c0-0.5,0.4-0.9,0.9-0.9h4c0.5,0,0.9,0.4,0.9,0.9v1.7
				C91,109.7,90.6,110.1,90.2,110.1z"/>
		</g>
		<g>
			<path class="st0" d="M97.7,110.9h-4c-0.5,0-0.9-0.4-0.9-0.9v-1.7c0-0.5,0.4-0.9,0.9-0.9h4c0.5,0,0.9,0.4,0.9,0.9v1.7
				C98.6,110.5,98.2,110.9,97.7,110.9z"/>
			<path class="st3" d="M97.7,110.1h-4c-0.5,0-0.9-0.4-0.9-0.9v-1.7c0-0.5,0.4-0.9,0.9-0.9h4c0.5,0,0.9,0.4,0.9,0.9v1.7
				C98.6,109.7,98.2,110.1,97.7,110.1z"/>
		</g>
		<g>
			<path class="st0" d="M105.3,110.9h-4c-0.5,0-0.9-0.4-0.9-0.9v-1.7c0-0.5,0.4-0.9,0.9-0.9h4c0.5,0,0.9,0.4,0.9,0.9v1.7
				C106.2,110.5,105.8,110.9,105.3,110.9z"/>
			<path class="st3" d="M105.3,110.1h-4c-0.5,0-0.9-0.4-0.9-0.9v-1.7c0-0.5,0.4-0.9,0.9-0.9h4c0.5,0,0.9,0.4,0.9,0.9v1.7
				C106.2,109.7,105.8,110.1,105.3,110.1z"/>
		</g>
	</g>
</g>
<path class="st6" d="M99.9,92.2H20.8c-3.6,0-6.5-2.9-6.5-6.5V79h92.1v6.7C106.4,89.3,103.5,92.2,99.9,92.2z"/>
<polygon class="st6" points="101.8,65.5 79.9,65.5 84.6,68 37,68 41.8,65.5 18.9,65.5 14.3,72 106.4,72 "/>
<line class="st7" x1="55.2" y1="37.9" x2="98.1" y2="37.9"/>
<line class="st7" x1="55.2" y1="44.5" x2="98.1" y2="44.5"/>
<line class="st7" x1="55.2" y1="50.4" x2="83.5" y2="50.4"/>
</svg>
