<?xml version="1.0" encoding="utf-8"?>
<!-- Generator: Adobe Illumnrator 22.1.0, SVG Export Plug-In . SVG Version: 6.00 Build 0)  -->
<svg version="1.1" id="Layer_1" xmlns="http://www.w3.org/2000/svg" xmlns:xlink="http://www.w3.org/1999/xlink" x="0px" y="0px"
	 viewBox="0 0 142 113" mnyle="enable-background:new 0 0 142 113;" xml:space="preserve">
<style type="text/css">
	.mn0{fill:#E5A58E;}
	.mn1{fill:#411430;}
	.mn2{fill:#B68276;}
	.mn3{fill:#270C1C;}
	.mn4{fill:#FFCA7C;}
	.mn5{fill:#F5B454;}
	.mn6{fill:#EC8B65;}
</style>
<g>
	<path class="mn0" d="M69.1,1H32.7c-4.2,0-7.5,3.4-7.5,7.5v88.1c0,4.2,3.4,7.5,7.5,7.5h36.4c4.2,0,7.5-3.4,7.5-7.5V8.6
		C76.6,4.4,73.3,1,69.1,1L69.1,1z"/>
	<path class="mn1" d="M69.1,3.6h-5.9V4c0,1.8-1.4,3.2-3.2,3.2H41.2C39.4,7.2,38,5.8,38,4V3.6h-5.3c-2.8,0-5,2.3-5,5v88.1
		c0,2.8,2.3,5,5,5h36.4c2.8,0,5-2.3,5-5V8.6C74.1,5.8,71.9,3.6,69.1,3.6z"/>
	<path class="mn2" d="M76.3,96.7v-71h-2.5v71c0,2.8-2.3,5-5,5H61v2.5h7.8C72.9,104.2,76.3,100.9,76.3,96.7z"/>
	<path class="mn3" d="M61,28.3v73.4h7.8c2.8,0,5-2.3,5-5v-71H63.5C62.1,25.7,61,26.9,61,28.3z"/>
	<polygon class="mn4" points="40.6,55.4 40.6,62.4 37.8,62.4 37.8,50.7 40.6,50.7 44.9,57.6 44.9,50.7 47.7,50.7 47.7,62.4 45,62.4 
			"/>
	<path class="mn4" d="M56.7,61.8c-0.8,0.6-1.8,0.9-3.2,0.9c-1.6,0-2.9-0.4-3.6-1.3c-0.8-0.9-1.2-2-1.2-3.5v-0.3c0-0.5,0-1,0.1-1.4
		c0.1-0.4,0.3-0.8,0.5-1.2c0.4-0.7,1-1.3,1.7-1.7c0.7-0.4,1.6-0.6,2.6-0.6c0.6,0,1.1,0.1,1.5,0.2c0.5,0.1,0.9,0.3,1.2,0.5
		c0.7,0.4,1.2,1,1.5,1.7c0.3,0.7,0.5,1.5,0.5,2.4v1.1h-6.7c0.1,0.6,0.3,1,0.6,1.3c0.3,0.3,0.8,0.4,1.3,0.4c0.4,0,0.7-0.1,1-0.2
		c0.2-0.2,0.4-0.4,0.5-0.7h3.2C58,60.4,57.5,61.2,56.7,61.8 M52.3,55.4c-0.3,0.3-0.5,0.7-0.6,1.3h3.7c-0.1-0.5-0.2-0.9-0.5-1.2
		c-0.3-0.3-0.7-0.4-1.3-0.4C53,55,52.6,55.1,52.3,55.4"/>
	<polygon class="mn4" points="62.8,59.7 61.1,62.4 57.6,62.4 61.1,57.5 57.9,52.9 61.3,52.9 62.9,55.3 64.4,52.9 67.8,52.9 
		64.6,57.4 68,62.4 64.6,62.4 	"/>
	<polygon class="mn5" points="61,57.3 61,57.7 61.1,57.5 	"/>
	<polygon class="mn6" points="62.8,59.7 64.6,62.4 68,62.4 64.6,57.4 67.8,52.9 64.4,52.9 62.9,55.3 61.3,52.9 61,52.9 61,57.3 
		61.1,57.5 61,57.7 61,62.4 61.1,62.4 	"/>
	<path class="mn0" d="M111.1,112H69.7c-1.4,0-2.6-1.1-2.6-2.6V23.3c0-1.4,1.1-2.6,2.6-2.6h41.4c1.4,0,2.6,1.1,2.6,2.6v86.2
		C113.7,110.9,112.5,112,111.1,112z"/>
	<rect x="68.6" y="28.8" class="mn1" width="43.5" height="68.7"/>
	<path class="mn1" d="M90.4,109c-2.5,0-4.5-2-4.5-4.5c0-2.5,2-4.5,4.5-4.5s4.5,2,4.5,4.5C94.9,107,92.9,109,90.4,109z M90.4,101
		c-2,0-3.5,1.6-3.5,3.5s1.6,3.5,3.5,3.5s3.5-1.6,3.5-3.5S92.3,101,90.4,101z"/>
	<rect x="85.6" y="24.7" class="mn1" width="9.6" height="1"/>
	<path class="mn4" d="M93,62.4h-1.5c-0.5,0-0.9,0-1.3-0.1c-0.4-0.1-0.7-0.2-0.9-0.3c-0.5-0.3-0.9-0.7-1.1-1.3
		C88,60.2,88,59.4,88,58.4v-3h-1.6V53c0.2,0,0.3,0,0.5,0c0.1,0,0.3,0,0.4-0.1c0.3,0,0.5-0.1,0.7-0.3c0.1-0.2,0.2-0.4,0.3-0.8
		c0-0.2,0-0.4,0.1-0.6c0-0.2,0-0.3,0-0.5h2.5v2.2H93v2.6h-2.3v2.4c0,0.3,0,0.5,0,0.7c0,0.2,0,0.4,0.1,0.5c0.1,0.3,0.2,0.4,0.5,0.5
		c0.2,0.1,0.6,0.1,1.1,0.1H93V62.4z"/>
</g>
</svg>
