<?xml version="1.0" encoding="utf-8"?>
<!-- Generator: Adobe Illustrator 22.1.0, SVG Export Plug-In . SVG Version: 6.00 Build 0)  -->
<svg version="1.1" id="Layer_1" xmlns="http://www.w3.org/2000/svg" xmlns:xlink="http://www.w3.org/1999/xlink" x="0px" y="0px"
	 viewBox="0 0 140.1 132" style="enable-background:new 0 0 140.1 132;" xml:space="preserve">
<style type="text/css">
	.st0{fill:#A97D6E;}
	.st1{fill:#B68276;}
	.st2{fill:#E5A58E;}
	.st3{fill:#270C1C;}
	.st4{fill:#4D1838;}
	.st5{fill:#411430;}
	.st6{fill:#FFCA7C;}
	.st7{fill:none;stroke:#411430;stroke-width:2;stroke-miterlimit:10;}
</style>
<path class="st0" d="M60.5,128.5H46.9c-0.8,0-1.4-0.6-1.4-1.4v-3h16.4v3C61.9,127.8,61.3,128.5,60.5,128.5z"/>
<path class="st0" d="M118.7,128.5h-13.6c-0.8,0-1.4-0.6-1.4-1.4v-3h16.4v3C120.1,127.8,119.5,128.5,118.7,128.5z"/>
<path class="st1" d="M127.2,124.9H38.5c-2.5,0-4.6-2-4.6-4.6V99.1h97.8v21.2C131.7,122.8,129.7,124.9,127.2,124.9z"/>
<path class="st2" d="M109.4,69.2H56.3c-1.7,0-3.4,0.9-4.3,2.3l-18,27.6h97.8l-18-27.6C112.7,70.1,111.1,69.2,109.4,69.2z"/>
<path class="st3" d="M25.7,56.4c0,2,2.1,5.5,3.2,6.3c1,0.9,2,1,4.7,0.7c3.8-0.3,7.2-1.2,12.4-2.9c4.7-1.6,8.5-3.6,10.8-5.5
	c1.2-1,0.9-2,0.7-2.8c-0.2-0.8-2.2-4.4-2.8-5.2c-2.7,1.4-9.3,4.5-13.8,5.7C38,53.7,29.8,55.8,25.7,56.4z"/>
<path class="st4" d="M83.2,25.4c15.5,0,39.5,1.9,51.9,7.7c3.6,1.7,5.6,17.7,5.6,23.3c-4.1-0.6-9.8-1.8-16.7-4
	c-4.1-1.3-9.9-3.9-12.2-5.3c-0.4-3.1-0.8-4.4-1.5-5.6c-1.2-2-4-2.3-9.1-3c-5.4-0.7-13.3-1.2-17.9-1.1c-4.6-0.1-12.8,0.4-17.9,1.1
	c-5.1,0.7-8,1-9.1,3c-0.7,1.2-1.1,2.6-1.5,5.6c-2.4,1.4-8.1,3.9-12.2,5.3c-6.9,2.2-12.6,3.4-16.7,4c0-5.6,2-21.6,5.6-23.3
	C43.7,27.3,67.7,25.4,83.2,25.4z"/>
<path class="st3" d="M140.7,56.4c0,2-2.1,5.5-3.2,6.3c-1,0.9-2,1-4.7,0.7c-3.8-0.3-7.2-1.2-12.4-2.9c-4.7-1.6-8.5-3.6-10.8-5.5
	c-1.2-1-0.9-2-0.7-2.8c0.2-0.8,2.2-4.4,2.8-5.2c2.7,1.4,9.3,4.5,13.8,5.7C128.5,53.7,136.6,55.8,140.7,56.4z"/>
<path class="st2" d="M83.2,56.1c-21.9,0-23.8-4.9-26-19.1l-0.3-1.6c-0.2-1.1,1.2-2.3,3-2.6c1.9-0.3,3.5,0.4,3.7,1.5l0.3,1.6
	c1,6.2,1.5,9.2,3.4,10.8c2.1,1.8,6.9,2.6,15.9,2.6c9,0,13.8-0.8,15.9-2.6c1.9-1.6,2.4-4.6,3.4-10.7l0.3-1.7c0.2-1.1,1.8-1.8,3.7-1.5
	c1.9,0.3,3.2,1.4,3,2.6l-0.3,1.7C106.9,51.2,105,56.1,83.2,56.1z"/>
<ellipse class="st5" cx="82.8" cy="69.3" rx="20.9" ry="19.9"/>
<ellipse class="st6" cx="82.8" cy="67.8" rx="19.1" ry="18.4"/>
<ellipse class="st0" cx="82.8" cy="67.8" rx="9.2" ry="8.9"/>
<g>
	<ellipse class="st5" cx="87.8" cy="81.1" rx="2.7" ry="2.6"/>
	<ellipse class="st5" cx="79.3" cy="81.4" rx="2.7" ry="2.6"/>
	<ellipse class="st5" cx="72.4" cy="77.9" rx="2.7" ry="2.6"/>
	<ellipse class="st5" cx="68.8" cy="71.2" rx="2.7" ry="2.6"/>
	<ellipse class="st5" cx="69.2" cy="63.7" rx="2.7" ry="2.6"/>
	<ellipse class="st5" cx="73.3" cy="57.4" rx="2.7" ry="2.6"/>
	<ellipse class="st5" cx="80.5" cy="53.8" rx="2.7" ry="2.6"/>
	<ellipse class="st5" cx="88.5" cy="55" rx="2.7" ry="2.6"/>
	<ellipse class="st5" cx="94.7" cy="60" rx="2.7" ry="2.6"/>
	<ellipse class="st5" cx="97.4" cy="67.3" rx="2.7" ry="2.6"/>
</g>
<path class="st5" d="M101.3,76.7l-2.6,3.5l-6.3-4.5c-0.3-0.2-0.3-0.7,0-1c0.3-0.4,0.7-0.5,1-0.3c0,0,0.9,0.7,1.6,1.2
	c1.1,0.8,3.4,0.3,4-0.4C99.8,75.8,101.3,76.7,101.3,76.7z"/>
<path class="st7" d="M26.8,59.8C20.7,62.5,11.3,71,14.1,81.4c2.8,10.6,9.6,24.7-7.1,31.3c-9.5,3.8-3.1,7.9,7.4,7.9
	c7.6,0,15.3-4.5,19.6-5"/>
<rect x="80.4" y="104.4" transform="matrix(6.123234e-17 -1 1 6.123234e-17 -30.3123 196.7231)" class="st6" width="5.7" height="18.2"/>
</svg>
