<?xml version="1.0" encoding="utf-8"?>
<!-- Generator: Adobe Illustrator 21.0.2, SVG Export Plug-In . SVG Version: 6.00 Build 0)  -->
<svg version="1.1" id="Layer_1" xmlns="http://www.w3.org/2000/svg" xmlns:xlink="http://www.w3.org/1999/xlink" x="0px" y="0px"
	 viewBox="0 0 520 520" style="enable-background:new 0 0 520 520;" xml:space="preserve">
<style type="text/css">
	.st0{fill:#FFFFFF;}
	.st1{fill:#57143B;}
</style>
<rect x="0" class="st0" width="520" height="520"/>
<g>
	<path class="st1" d="M399.3,422.4h-40.4c-12.9,0-24.2-0.9-34-2.6c-9.8-1.8-18.2-4.3-25.2-7.5c-13.8-7-23.3-18.4-28.5-34
		c-5.3-15.7-7.9-36.7-7.9-63v-80.8h-43v-66.3c5,0,9.3-0.2,12.9-0.6c3.6-0.5,7.7-1.1,12.1-2c8.2-1.2,14.1-3.9,17.8-8.1
		c3.7-4.2,6.1-11.8,7.2-22.6c0.6-5.3,1.1-11,1.6-17.3c0.4-6.3,0.8-8.1,1.1-13.4h65.9v59.7h60.6v70.7h-60.6v65
		c0,7.3,0.3,13.7,0.9,19.1c0.6,5.4,1.3,9.9,2.2,13.4c2.3,6.7,6.6,11.1,12.9,13.2c6.3,2.1,15.7,3.1,28.3,3.1h16.2V422.4z"/>
	<g>
		<path class="st1" d="M416.3,145.6c-4.9-4.3-7.4-10.6-7.4-18.8v-1.2c0-2.6,0.3-5.1,0.9-7.4c0.6-2.3,1.4-4.4,2.5-6.3
			c2.3-3.9,5.3-6.9,9.2-9c3.9-2.1,8.3-3.2,13.2-3.2c2.4,0,4.7,0.2,6.9,0.8c2.2,0.5,4.3,1.2,6.2,2.2c3.9,2.1,7,5,9.4,8.9
			c2.4,3.8,3.5,8.5,3.5,13.9v1.3c0,2.7-0.3,5.2-0.9,7.5c-0.6,2.3-1.5,4.4-2.7,6.2c-2.3,3.8-5.3,6.7-9.2,8.6c-3.9,2-8.2,2.9-13,2.9
			C427.4,152.1,421.2,149.9,416.3,145.6z M450.1,142.3c3.9-3.6,5.9-8.9,5.9-15.8v-0.8c0-6.9-2-12.2-6-15.9c-4-3.8-9.1-5.6-15.3-5.6
			c-6.1,0-11.1,1.9-15.1,5.8c-4,3.9-6,9.2-6,15.9v0.7c0,6.8,2,12,6,15.7c4,3.7,9.1,5.5,15.3,5.5
			C441.1,147.7,446.1,145.9,450.1,142.3z M429.6,129v9.9H425v-26.7h10.7c3.7,0,6.4,0.7,8,2.2c1.6,1.4,2.4,3.3,2.4,5.7
			c0,1.9-0.5,3.4-1.3,4.6c-0.9,1.1-2.3,1.9-4.1,2.4c1.7,0.4,2.9,1,3.6,2c0.7,1,1.1,2.5,1.1,4.6v3.9c0,0.3,0.1,0.5,0.1,0.8
			c0.1,0.2,0.2,0.4,0.3,0.6H441c-0.1-0.1-0.2-0.2-0.2-0.5c0-0.2-0.1-0.5-0.1-0.9v-3.9c0-1.7-0.3-2.9-1-3.6c-0.6-0.7-2.2-1-4.6-1
			H429.6z M440.1,123.9c0.9-0.9,1.4-2.1,1.4-3.7c0-1.3-0.5-2.4-1.5-3.1c-1-0.7-2.5-1-4.6-1h-5.8v9h5.5
			C437.5,125.2,439.2,124.8,440.1,123.9z"/>
	</g>
</g>
</svg>
