<?xml version="1.0" encoding="utf-8"?>
<!-- Generator: Adobe Illustrator 15.0.0, SVG Export Plug-In . SVG Version: 6.00 Build 0)  -->
<!DOCTYPE svg PUBLIC "-//W3C//DTD SVG 1.1//EN" "http://www.w3.org/Graphics/SVG/1.1/DTD/svg11.dtd">
<svg version="1.1" id="Layer_1" xmlns="http://www.w3.org/2000/svg" xmlns:xlink="http://www.w3.org/1999/xlink" x="0px" y="0px"
	 width="100px" height="17.415px" viewBox="-45.06 8.696 100 17.415" enable-background="new -45.06 8.696 100 17.415"
	 xml:space="preserve">
<g>
	<path fill="#FFFFFF" d="M-45.06,9.634h7.167c3.818,0,5.426,1.741,5.426,4.22v0.067c0,1.809-0.938,3.015-2.748,3.483
		c2.01,0.334,3.216,1.54,3.216,3.75v0.067c0,2.88-1.875,4.487-5.828,4.487h-7.234V9.634z M-38.831,15.997
		c1.474,0,2.01-0.469,2.01-1.675v-0.067c0-1.071-0.604-1.607-2.01-1.607h-1.741v3.349H-38.831z M-38.63,22.629
		c1.474,0,2.144-0.671,2.144-1.875v-0.07c0-1.203-0.67-1.875-2.276-1.875h-1.809v3.82H-38.63z"/>
	<path fill="#FFFFFF" d="M-31.932,21.624V13.92h4.02v7.033c0,1.341,0.535,2.01,1.673,2.01c1.206,0,2.01-0.736,2.01-2.209V13.92
		h4.019v11.789h-4.019V23.9c-0.603,1.206-1.809,2.077-3.751,2.077C-30.189,25.978-31.932,24.568-31.932,21.624z M-30.324,10.773
		c0-1.005,0.871-1.875,1.942-1.875c1.073,0,1.943,0.871,1.943,1.875s-0.871,1.875-1.943,1.875
		C-29.521,12.648-30.324,11.845-30.324,10.773z M-25.568,10.773c0-1.005,0.803-1.875,1.942-1.875c1.072,0,1.942,0.871,1.942,1.875
		s-0.871,1.875-1.942,1.875S-25.568,11.845-25.568,10.773z"/>
	<path fill="#FFFFFF" d="M-19.474,13.92h4.019v2.344c0.736-1.741,2.01-2.544,3.818-2.479v3.752
		c-2.479-0.067-3.818,0.669-3.818,2.612v5.559h-4.019V13.92z"/>
	<path fill="#FFFFFF" d="M-12.307,20.016v-0.202c0-3.749,2.813-6.161,6.43-6.161c3.617,0,6.43,2.344,6.43,6.027v0.204
		c0,3.816-2.813,6.094-6.43,6.094C-9.427,25.978-12.307,23.767-12.307,20.016z M-3.465,19.948V19.75
		c0-2.011-0.805-3.083-2.344-3.083c-1.542,0-2.346,1.072-2.346,3.013v0.204c0,2.007,0.804,3.147,2.346,3.147
		C-4.27,23.03-3.465,21.891-3.465,19.948z"/>
	<path fill="#FFFFFF" d="M0.018,20.016v-0.202c0-3.951,2.813-6.161,6.296-6.161c2.88,0,5.559,1.272,5.761,4.823H8.323
		c-0.201-1.072-0.736-1.743-1.875-1.743c-1.406,0-2.277,1.005-2.277,3.017v0.198c0,2.078,0.803,3.083,2.344,3.083
		c1.137,0,1.942-0.67,2.077-1.943h3.616c-0.134,2.947-2.144,4.891-5.895,4.891C2.697,25.978,0.018,23.968,0.018,20.016z"/>
	<path fill="#FFFFFF" d="M12.141,13.92h4.017v2.344c0.738-1.741,2.009-2.544,3.82-2.479v3.752c-2.477-0.067-3.82,0.669-3.82,2.612
		v5.559h-4.017V13.92z"/>
	<path fill="#FFFFFF" d="M19.172,22.495c0-2.746,2.345-3.82,6.23-3.82h1.14v-0.266c0-1.139-0.269-1.875-1.54-1.875
		c-1.074,0-1.542,0.669-1.608,1.406h-3.751c0.201-2.813,2.41-4.219,5.626-4.219c3.215,0,5.29,1.339,5.29,4.487v7.636h-3.949v-1.408
		c-0.537,0.87-1.607,1.677-3.482,1.677C21.048,25.978,19.172,24.973,19.172,22.495z M26.542,21.624v-0.738h-1.071
		c-1.607,0-2.344,0.336-2.344,1.273c0,0.669,0.468,1.137,1.405,1.137C25.669,23.296,26.542,22.629,26.542,21.624z"/>
	<path fill="#FFFFFF" d="M31.563,21.958v-5.225h-1.405V13.92h1.405v-2.411h4.02v2.479h2.345v2.745h-2.345v4.822
		c0,0.87,0.402,1.273,1.206,1.273c0.471,0,0.804-0.063,1.139-0.199v3.08c-0.534,0.134-1.273,0.335-2.211,0.335
		C33.106,25.978,31.563,24.704,31.563,21.958z"/>
	<path fill="#FFFFFF" d="M38.329,10.773c0-1.206,0.94-2.077,2.211-2.077c1.272,0,2.212,0.871,2.212,2.077
		c0,1.205-0.939,2.076-2.212,2.076C39.27,12.849,38.329,11.978,38.329,10.773z M38.53,13.92h4.019v11.789H38.53V13.92z"/>
	<path fill="#FFFFFF" d="M43.219,8.763h4.019v9.845l3.148-4.688h4.219l-3.814,5.292l4.15,6.497h-4.489l-3.146-5.158v5.158h-4.02
		V8.763H43.219z"/>
</g>
</svg>
