<?xml version="1.0" encoding="utf-8"?>
<!-- Generator: Adobe Illustrator 19.1.0, SVG Export Plug-In . SVG Version: 6.00 Build 0)  -->
<svg version="1.1" id="Layer_1" xmlns="http://www.w3.org/2000/svg" xmlns:xlink="http://www.w3.org/1999/xlink" x="0px" y="0px"
	 viewBox="0 0 152.1 27.4" style="enable-background:new 0 0 152.1 27.4;" xml:space="preserve">
<style type="text/css">
	.st0{fill:#1D1D1B;}
</style>
<g>
	<path class="st0" d="M1.4,2.2h10.7c5.7,0,8.1,2.6,8.1,6.3v0.1c0,2.7-1.4,4.5-4.1,5.2c3,0.5,4.8,2.3,4.8,5.6v0.1
		c0,4.3-2.8,6.7-8.7,6.7H1.4V2.2z M10.7,11.7c2.2,0,3-0.7,3-2.5V9.1c0-1.6-0.9-2.4-3-2.4H8.1v5H10.7z M11,21.6c2.2,0,3.2-1,3.2-2.8
		v-0.1c0-1.8-1-2.8-3.4-2.8H8.1v5.7H11z"/>
	<path class="st0" d="M21,20.1V8.6h6v10.5c0,2,0.8,3,2.5,3c1.8,0,3-1.1,3-3.3V8.6h6v17.6h-6v-2.7c-0.9,1.8-2.7,3.1-5.6,3.1
		C23.6,26.6,21,24.5,21,20.1z M23.4,3.9c0-1.5,1.3-2.8,2.9-2.8c1.6,0,2.9,1.3,2.9,2.8c0,1.5-1.3,2.8-2.9,2.8
		C24.6,6.7,23.4,5.5,23.4,3.9z M30.5,3.9c0-1.5,1.2-2.8,2.9-2.8c1.6,0,2.9,1.3,2.9,2.8c0,1.5-1.3,2.8-2.9,2.8
		C31.8,6.7,30.5,5.5,30.5,3.9z"/>
	<path class="st0" d="M39.6,8.6h6v3.5c1.1-2.6,3-3.8,5.7-3.7V14c-3.7-0.1-5.7,1-5.7,3.9v8.3h-6V8.6z"/>
	<path class="st0" d="M50.3,17.7v-0.3c0-5.6,4.2-9.2,9.6-9.2c5.4,0,9.6,3.5,9.6,9v0.3c0,5.7-4.2,9.1-9.6,9.1
		C54.6,26.6,50.3,23.3,50.3,17.7z M63.5,17.6v-0.3c0-3-1.2-4.6-3.5-4.6c-2.3,0-3.5,1.6-3.5,4.5v0.3c0,3,1.2,4.7,3.5,4.7
		C62.3,22.2,63.5,20.5,63.5,17.6z"/>
	<path class="st0" d="M68.7,17.7v-0.3c0-5.9,4.2-9.2,9.4-9.2c4.3,0,8.3,1.9,8.6,7.2h-5.6c-0.3-1.6-1.1-2.6-2.8-2.6
		c-2.1,0-3.4,1.5-3.4,4.5v0.3c0,3.1,1.2,4.6,3.5,4.6c1.7,0,2.9-1,3.1-2.9h5.4c-0.2,4.4-3.2,7.3-8.8,7.3
		C72.7,26.6,68.7,23.6,68.7,17.7z"/>
	<path class="st0" d="M86.8,8.6h6v3.5c1.1-2.6,3-3.8,5.7-3.7V14c-3.7-0.1-5.7,1-5.7,3.9v8.3h-6V8.6z"/>
	<path class="st0" d="M97.3,21.4c0-4.1,3.5-5.7,9.3-5.7h1.7v-0.4c0-1.7-0.4-2.8-2.3-2.8c-1.6,0-2.3,1-2.4,2.1H98
		c0.3-4.2,3.6-6.3,8.4-6.3c4.8,0,7.9,2,7.9,6.7v11.4h-5.9v-2.1c-0.8,1.3-2.4,2.5-5.2,2.5C100.1,26.6,97.3,25.1,97.3,21.4z
		 M108.3,20.1V19h-1.6c-2.4,0-3.5,0.5-3.5,1.9c0,1,0.7,1.7,2.1,1.7C107,22.6,108.3,21.6,108.3,20.1z"/>
	<path class="st0" d="M115.8,20.6v-7.8h-2.1V8.6h2.1V5h6v3.7h3.5v4.1h-3.5V20c0,1.3,0.6,1.9,1.8,1.9c0.7,0,1.2-0.1,1.7-0.3v4.6
		c-0.8,0.2-1.9,0.5-3.3,0.5C118.1,26.6,115.8,24.7,115.8,20.6z"/>
	<path class="st0" d="M125.9,3.9c0-1.8,1.4-3.1,3.3-3.1c1.9,0,3.3,1.3,3.3,3.1c0,1.8-1.4,3.1-3.3,3.1C127.3,7,125.9,5.7,125.9,3.9z
		 M126.2,8.6h6v17.6h-6V8.6z"/>
	<path class="st0" d="M133.2,0.9h6v14.7l4.7-7h6.3l-5.7,7.9l6.2,9.7H144l-4.7-7.7v7.7h-6V0.9z"/>
</g>
</svg>
